<svg xmlns="http://www.w3.org/2000/svg" width="1278.937" height="385.527" xmlns:v="https://vecta.io/nano"><path d="M810.969 385.397c-2.2.266-5.492.112-7.315-.343s-4.418-1.864-5.767-3.131-2.952-3.974-3.564-6.016c-.622-2.077-.803-5.364-.41-7.46.387-2.061 1.912-4.956 3.389-6.433s3.335-2.902 4.127-3.166c1.219-.406 1.165-1.063-.353-4.261-1.182-2.492-1.587-4.886-1.186-7.023.335-1.784 1.763-4.327 3.174-5.653 2.122-1.994 3.601-2.41 8.567-2.41 5.514 0 6.238.265 8.919 3.266 1.733 1.94 2.912 4.376 2.903 6-.008 1.504-.417 3.369-.908 4.144-.745 1.177-1.403 1.198-3.985.129-2.205-.913-3.092-1.949-3.092-3.61 0-1.281-.739-2.743-1.642-3.248s-2.437-.711-3.408-.457-1.972 1.252-2.225 2.217.043 2.663.658 3.772 4.167 5.296 7.895 9.304c6.413 6.894 6.856 7.185 8.223 5.385.795-1.046 1.712-2.69 2.039-3.652s.901-1.736 1.277-1.718 1.47.63 2.433 1.36 1.75 1.893 1.75 2.582-.964 2.969-2.142 5.065l-2.142 3.811 4.131 4.825 4.131 4.825-5.608.303c-4.713.255-5.836-.022-7.035-1.734-1.425-2.035-1.431-2.035-5.132.403-2.037 1.342-5.504 2.658-7.704 2.925zm-.612-7.397c1.467 0 3.678-.708 4.914-1.574l2.248-1.574-3.275-4.036-4.981-6.176-1.706-2.139-2.244 2.228c-1.509 1.498-2.244 3.424-2.244 5.879 0 2.608.66 4.185 2.311 5.522 1.271 1.029 3.511 1.871 4.977 1.871zm-542.676 6.68c-3.142.166-6.663-.107-7.824-.606s-3.048-2.098-4.193-3.553-2.611-4.252-3.259-6.215c-.685-2.075-.992-6.777-.734-11.233.285-4.923 1.092-8.762 2.256-10.733.997-1.688 3.147-3.857 4.777-4.82 1.715-1.013 4.987-1.751 7.765-1.751 2.87 0 6.056.742 7.922 1.844 1.716 1.014 4.011 3.683 5.1 5.931 1.437 2.968 1.973 6.123 1.957 11.522-.015 5.056-.609 8.714-1.859 11.434-1.01 2.2-2.817 4.873-4.016 5.939-1.492 1.328-3.978 2.034-7.891 2.241zm-1.575-6.68c1.372 0 3.317-.44 4.323-.979s2.326-2.406 2.934-4.149 1.103-5.466 1.101-8.271c-.002-3.319-.696-6.236-1.985-8.351-1.708-2.801-2.538-3.25-6.011-3.25s-4.303.449-6.011 3.25c-1.301 2.133-1.983 5.032-1.985 8.435-.002 2.852.409 6.269.913 7.595s1.661 3.155 2.571 4.065 2.778 1.655 4.149 1.655zm331.89 6.96c-2.765-.022-6.179-.666-7.586-1.431s-3.153-2.66-3.881-4.21c-.818-1.743-1.515-8.45-1.828-17.569l-.505-14.75h3.636 3.636l.015 12.75c.01 8.224.461 13.637 1.273 15.25.862 1.714 2.234 2.596 4.36 2.804 1.876.184 3.744-.338 4.727-1.321 1.345-1.345 1.625-4.029 1.625-15.554V347h3.5 3.5v14.55c0 10.952-.369 15.264-1.494 17.439-.822 1.589-2.497 3.592-3.722 4.45-1.328.93-4.259 1.545-7.256 1.521zm31.724-.286c-3.163.166-6.772-.215-8.019-.847s-3.245-2.729-4.438-4.66c-1.632-2.64-2.279-5.586-2.609-11.863-.333-6.351-.021-9.443 1.303-12.912 1.121-2.935 2.859-5.242 4.877-6.472 1.91-1.164 4.973-1.913 7.838-1.915 2.587-.002 5.86.524 7.275 1.168s3.402 2.557 4.416 4.25 2.117 4.541 2.45 6.328c.587 3.147.499 3.25-2.786 3.25-2.928 0-3.644-.514-5.225-3.75-1.541-3.153-2.397-3.797-5.383-4.049-2.612-.22-4.063.267-5.485 1.838-1.448 1.6-2.014 3.936-2.251 9.299-.259 5.841.059 7.761 1.72 10.412 1.442 2.301 2.791 3.25 4.618 3.25 1.419 0 3.404-.44 4.41-.979s2.303-2.338 2.882-4c.91-2.611 1.544-3.021 4.673-3.021 2.978 0 3.527.31 3.1 1.75-.286.962-.803 2.938-1.148 4.39s-1.942 3.898-3.546 5.436c-2.385 2.285-3.969 2.851-8.669 3.097zm94.249.282c-2.75-.02-6.235-.706-7.745-1.525s-3.737-3.388-4.951-5.71c-1.725-3.299-2.216-5.969-2.248-12.221-.03-5.926.455-9.003 1.871-11.868 1.052-2.127 3.298-4.713 4.992-5.746 1.88-1.147 4.949-1.88 7.88-1.882 2.64-.002 6.123.681 7.74 1.517s3.95 3.424 5.183 5.75c1.781 3.36 2.244 5.874 2.249 12.229.005 5.867-.502 9.031-1.903 11.868-1.05 2.127-3.296 4.713-4.99 5.746-1.963 1.197-4.894 1.865-8.08 1.842zm.265-7.153c2.505-.215 4.148-1.127 5.635-3.127 1.616-2.173 2.099-4.286 2.099-9.177 0-4.902-.481-6.998-2.108-9.177-1.664-2.229-2.904-2.823-5.892-2.823-2.881 0-4.234.602-5.668 2.523-1.036 1.388-2.152 4.175-2.48 6.194s-.304 5.225.052 7.125 1.588 4.649 2.736 6.109c1.677 2.131 2.786 2.595 5.624 2.351zm327.05 7.17c-2.374-.015-5.498-.76-6.943-1.657s-3.437-3.002-4.427-4.678c-1.159-1.963-1.961-5.827-2.252-10.86-.337-5.817-.018-8.95 1.249-12.267.936-2.45 3.053-5.593 4.706-6.983 2.333-1.963 4.117-2.528 7.978-2.528 2.735 0 6.293.683 7.906 1.517s3.559 2.747 4.324 4.25 1.703 3.746 2.084 4.983c.641 2.078.384 2.25-3.373 2.25-2.741 0-4.067-.439-4.067-1.345 0-.74-.823-2.09-1.829-3s-2.835-1.655-4.066-1.655-3.06.44-4.066.979-2.326 2.406-2.934 4.149-1.105 5.099-1.105 7.456.412 5.37.916 6.696 1.661 3.155 2.571 4.065 2.973 1.655 4.584 1.655 3.829-.9 4.929-2 2-2.9 2-4c0-1.467-.667-2-2.5-2-2.19 0-2.5-.433-2.5-3.5V363h6 6v10.5c0 8.941-.237 10.5-1.594 10.5-.877 0-1.846-.967-2.155-2.148-.476-1.821-.728-1.922-1.656-.663-.602.816-2.078 2.008-3.279 2.648s-4.126 1.151-6.5 1.137zm95.511.023c-4.166.003-5.799-.522-8.386-2.7-1.767-1.487-3.827-4.172-4.577-5.968-.764-1.83-1.354-6.685-1.342-11.047.015-5.472.586-9.024 1.921-11.966 1.19-2.62 3.11-4.81 5.138-5.859 2.341-1.211 4.898-1.555 9.227-1.242 5.176.374 6.369.859 8.791 3.569 1.541 1.725 3.324 5.066 3.963 7.425s.953 7.218.7 10.797-1.225 7.987-2.16 9.794-3.14 4.165-4.901 5.238c-2.083 1.27-5.009 1.953-8.375 1.956zm.749-7.075c1.551.048 3.541-.948 5-2.502 2.111-2.247 2.424-3.529 2.424-9.919 0-6.427-.307-7.665-2.469-9.967-1.913-2.036-3.253-2.561-5.951-2.331-2.739.234-3.897 1.01-5.424 3.634-1.244 2.138-1.942 5.201-1.942 8.523 0 2.853.73 6.598 1.622 8.323s2.194 3.366 2.893 3.648 2.43.547 3.847.59zM32.969 384h-4.5v-22.5V339h4.5 4.5v22.5V384zm13.47 0h-2.97v-18.5V347h4.071 4.071l6.179 12.75 6.179 12.75.28-12.75.28-12.75h2.97 2.97v18.5V384h-3.425c-3.363 0-3.546-.227-10.25-12.75l-6.825-12.75-.28 12.75-.28 12.75zm39.58 0h-3.55v-15-15h-4.5c-4.476 0-4.5-.019-4.5-3.5V347h12.563 12.563l-.313 3.25c-.298 3.088-.538 3.265-4.813 3.543l-4.5.293.3 14.957.3 14.957zm25.95 0h-11.5v-11-11h11 11v3 3h-7.5-7.5v4.5 4.5h8 8v3.5 3.5zm19 0h-3.5v-10.5V363h8.981c8.674 0 9.002-.083 9.59-2.428.335-1.335.313-3.36-.048-4.5-.601-1.892-1.432-2.072-9.59-2.072h-8.933v-3.5-3.5h10.845c9.429 0 11.072.251 12.585 1.922.957 1.057 1.985 3.749 2.284 5.981.305 2.277-.005 5.384-.706 7.078-.688 1.66-1.656 3.019-2.152 3.019s-.266 1.012.512 2.25 1.628 5.512 1.89 9.5l.476 7.25h-3.246-3.246l-.44-6.079c-.274-3.781-.981-6.422-1.87-6.985-.787-.498-3.343-.912-5.68-.921l-4.25-.015v7 7zm29.47 0h-2.97v-18.5V347h3.769 3.769l6.173 12.25 6.173 12.25.058-12.25.058-12.25h3.5 3.5v18.5V384l-3.75-.004-3.75-.004-6.5-12.746-6.5-12.746-.28 12.75-.28 12.75h-2.97zm29.384 0c-2.439 0-3.419-.395-3.097-1.25.259-.687 1.22-3.837 2.135-7l1.664-5.75h6.972c4.922 0 6.966-.368 6.952-1.25-.011-.687-1.127-5.525-2.48-10.75s-2.469-9.837-2.48-10.25 1.257-.75 2.819-.75c2.818 0 2.877.131 8.003 17.75l5.161 18.5c-.002.413-1.498.75-3.326.75-3.009 0-3.411-.355-4.25-3.75-.923-3.735-.949-3.751-6.625-4.048l-5.698-.298-1.09 4.048c-1.015 3.771-1.334 4.048-4.659 4.048zm36.146 0h-3.5v-15-15h-4.5c-4.476 0-4.5-.019-4.5-3.5V347h12.5 12.5v3.5c0 3.481-.024 3.5-4.5 3.5h-4.5v15 15zm18.5 0h-3v-18.5V347h3 3v18.5V384zm43.97 0h-2.97v-18.5V347h3.769 3.769l6.173 12.25 6.173 12.25.058-12.25.058-12.25h3.5 3.5v18.5V384H308.7h-3.769l-6.481-12.75-6.481-12.75-.28 12.75-.28 12.75zm29.802-.193l-3.664.307 1.946-6.804 1.946-7.057c0-.139 3.405-.253 7.567-.253 7.227 0 7.537-.094 6.902-2.095-.366-1.152-1.746-6.135-3.067-11.072l-2.402-9.405c0-.235 1.32-.428 2.933-.428 1.928 0 3.111.6 3.454 1.75l5.067 17.422c2.5 8.619 4.546 16.157 4.546 16.75S341.973 384 340.145 384c-3.009 0-3.411-.355-4.25-3.75-.921-3.729-.958-3.752-6.566-4.047l-5.64-.297-.892 3.797c-.812 3.455-1.222 3.824-4.556 4.104zm38.728.193h-10.5v-18.5V347h3 3v15 15h7.5 7.5v3.5 3.5zm38 0h-4.5v-12.5V359h12.465c11.3 0 12.562-.181 13.5-1.934.569-1.064 1.035-2.999 1.035-4.3s-.54-2.906-1.2-3.566c-.803-.803-5.267-1.2-13.5-1.2h-12.3v-4.57-4.57l15.48.32c15.138.313 15.537.378 18.075 2.918 1.609 1.611 2.803 4.152 3.144 6.69.302 2.251.257 5.256-.1 6.678s-1.574 3.511-2.705 4.642c-1.878 1.878-1.92 2.206-.486 3.79.863.954 1.778 3.055 2.033 4.669s.703 5.747.997 9.184l.533 6.25h-4.985-4.985v-5.777c0-3.611-.584-6.611-1.557-8-1.372-1.958-2.442-2.223-9-2.223h-7.443v8 8zm37.889 0c-1.864 0-3.389-.457-3.389-1.015s.749-3.708 1.664-7l1.664-5.985h7.336c4.035 0 7.335-.337 7.334-.75s-1.126-4.945-2.5-10.072-2.497-9.965-2.497-10.75c0-.894 1.037-1.428 2.771-1.428 2.689 0 2.866.348 5.977 11.75l5.174 18.557 1.968 6.807-3.638-.307c-3.166-.267-3.746-.728-4.474-3.557-.825-3.207-.915-3.25-6.763-3.25h-5.926l-.657 3.5c-.597 3.182-.964 3.5-4.045 3.5zm31.111 0h-3.5v-18.5V347h3.5 3.5v18.5V384zm18.5 0h-11v-18.5V347h3.5 3.5v15 15h7.5 7.5v3.5 3.5zm50.5 0h-16.5v-13.5V357h15.5 15.5v4 4h-11-11v5.5 5.5h12 12v4 4zm30.365 0h-9.865v-18.5V347h9.865c8.376 0 10.252.304 12.428 2.016 1.409 1.109 3.132 3.696 3.828 5.75s1.265 6.884 1.265 10.734-.569 8.68-1.265 10.734-2.418 4.641-3.828 5.75c-2.176 1.711-4.051 2.016-12.428 2.016zm1.98-7c3.656 0 5.313-.517 6.75-2.105 1.507-1.665 1.905-3.63 1.905-9.395s-.398-7.73-1.905-9.395c-1.437-1.588-3.094-2.105-6.75-2.105h-4.845v11.5V377zm82.479 7c-1.828 0-3.324-.469-3.324-1.043s.788-3.723 1.75-6.999l1.75-5.955 7.25-.001c3.987-.001 7.25-.166 7.25-.367s-1.321-5.402-2.937-11.559l-2.937-11.193 3.159.309 3.159.309 5.139 18 5.139 18-2.445.325c-1.345.179-3.026.102-3.735-.17s-1.596-2.127-1.97-4.123l-.681-3.628-5.696.298c-5.672.297-5.699.314-6.622 4.048-.839 3.395-1.241 3.75-4.25 3.75zm35.676 0h-3v-15-15h-4.5c-4.476 0-4.5-.019-4.5-3.5V347h12.5 12.5v3.5 3.5h-5-5v15 15zm18.5 0h-3.5v-18.5V347h3.5 3.5v18.5V384zm44 0h-3.5v-18.5V347h3.992 3.992l6.455 12.75 6.455 12.75.052-12.75.052-12.75h3 3v18.5V384h-3.492c-3.47 0-3.534-.083-9.948-12.75l-6.455-12.75-.052 12.75-.052 12.75zm126.5 0h-5v-17.952-17.952l-6.25-.298-6.25-.298-.308-4.25-.308-4.25h18.058 18.058v4.5 4.5h-6.5-6.5v18 18zm23.465 0h-3.535l.285-10.25.285-10.25 9-.5 9-.5v-4-4l-9.25-.288-9.25-.288v-3.462V347l10.75.015c5.913.008 11.245.346 11.85.75s1.618 1.718 2.25 2.919 1.15 4.139 1.15 6.527-.714 5.363-1.587 6.609c-1.147 1.637-1.292 2.621-.523 3.547.585.705 1.364 4.51 1.73 8.457s.985 7.176 1.375 7.176 1.5-2.925 2.467-6.5l1.759-6.5h7.456c6.639 0 7.397-.192 6.919-1.75-.296-.962-1.675-6.025-3.065-11.25l-2.53-9.75c-.001-.137 1.328-.25 2.955-.25 2.789 0 3.071.385 4.942 6.75l5.464 18.556 3.48 11.806-3.547-.306c-3.068-.264-3.699-.778-4.672-3.806-1.103-3.43-1.233-3.5-6.536-3.5-5.293 0-5.436.076-6.586 3.5l-1.175 3.5-7.664.292-7.664.292v-5.471c0-3.64-.526-5.996-1.571-7.042-.955-.955-3.307-1.571-6-1.571h-4.429v7 7zm58.535 0h-3v-18.5V347h3 3v18.5V384zm11.5 0h-3.5v-18.5V347h3.992 3.992l6.455 12.75 6.455 12.75.052-12.75.052-12.75h3.5 3.5v18.5V384h-3.992-3.992l-6.455-12.75-6.455-12.75-.052 12.75-.052 12.75zm32 0h-3.5v-18.5V347h3.5 3.5v18.5V384zm11.5 0h-3v-18.5V347h3.769 3.769l6.482 12.75 6.482 12.75.28-12.75.28-12.75h2.97 2.97v18.5V384h-3.767-3.767l-6.675-13.25-6.675-13.25-.058 13.25-.058 13.25h-3zm95.55 0h-14.55v-13.47-13.47l12.75-.28 12.75-.28.318-3.315c.175-1.823-.217-3.961-.872-4.75-.912-1.099-3.971-1.435-13.068-1.435h-11.878v-4-4h14.944c14.356 0 15.055.095 17.75 2.413 2.493 2.144 2.806 3.081 2.806 8.395 0 4.385-.487 6.519-1.823 7.996-1.663 1.838-1.68 2.094-.195 2.926.896.501 2.291 2.834 3.101 5.185.917 2.661 1.224 5.654.813 7.929-.363 2.011-1.063 4.438-1.557 5.395s-2.212 2.419-3.819 3.25c-2.212 1.144-6.449 1.51-17.47 1.51zm2.2-8.015c4.263-.008 8.306-.368 8.985-.8s1.508-2.151 1.842-3.821c.425-2.126.109-3.535-1.056-4.7-1.272-1.272-3.531-1.664-9.592-1.664h-7.929v5.5 5.5l7.75-.015zM1166.87 384c-1.87 0-3.395-.337-3.387-.75s.82-3.45 1.806-6.75l1.793-6 7.194-.294c4.801-.196 7.187-.695 7.174-1.5-.011-.663-1.127-5.481-2.48-10.706s-2.469-9.837-2.48-10.25 1.245-.75 2.791-.75c2.785 0 2.856.158 7.665 17.25l5.296 18.5c.3.85-.707 1.25-3.146 1.25-3.101 0-3.67-.373-4.19-2.75-.331-1.512-.784-3.335-1.007-4.05-.285-.917-2.093-1.212-6.133-1-5.719.3-5.73.307-6.611 4.05-.806 3.425-1.177 3.75-4.283 3.75zm31.064 0h-3.535l.285-10.25.285-10.25 9-.5 9-.5v-4-4l-9.25-.288-9.25-.288v-3.462V347h10.927c10.614 0 10.987.076 13 2.635 1.421 1.806 2.073 4.095 2.073 7.277 0 2.621-.691 5.629-1.587 6.908-1.222 1.745-1.321 2.586-.427 3.662.638.768 1.417 4.799 1.731 8.957l.572 7.56h-3.644-3.644v-5.429c0-3.602-.529-5.957-1.571-7-.956-.955-3.307-1.571-6-1.571h-4.429v7 7zm36.389 0h-9.854v-18.5V347h9.535c6.953 0 10.18.422 11.915 1.559 1.309.858 3.093 3.342 3.965 5.52.9 2.25 1.582 6.868 1.579 10.691 0 3.701-.489 8.472-1.081 10.602s-2.23 4.942-3.64 6.25c-2.34 2.169-3.43 2.377-12.419 2.377zm1.623-7c4.747 0 5.697-.335 7.125-2.515 1.102-1.681 1.648-4.66 1.648-8.985s-.546-7.303-1.648-8.985c-1.428-2.18-2.378-2.515-7.125-2.515h-5.477v11.5V377zm-1123.31-23c-5.958 0-11.133-.3-11.5-.667s-.667-1.942-.667-3.5V347h11.5 11.5v3.5 3.5zm420.071-6.225l-16.237.275v-4.525V339h15.981 15.981l.608 2.421c.334 1.331.45 3.244.256 4.25-.32 1.669-1.774 1.853-16.589 2.104zm138.331-34.875c-3.888-.055-8.763-.5-10.834-.988s-5.532-1.789-7.692-2.89-5.069-3.501-6.465-5.331-3.222-5.266-4.058-7.635c-.886-2.511-1.516-7.694-1.51-12.431.008-6.457.496-9.151 2.378-13.124 1.302-2.75 3.887-6.443 5.744-8.207s5.317-3.892 7.688-4.729 7.095-1.801 10.496-2.144c3.438-.346 9.046-.098 12.63.558 3.545.649 8.045 2.001 10 3.004s4.539 2.88 5.742 4.171 3.106 4.372 4.228 6.847 2.05 5.063 2.062 5.75c.016.889-2.109 1.25-7.357 1.25-7.288 0-7.394-.038-8.647-3.061-.697-1.683-2.801-4.23-4.675-5.66-2.724-2.077-4.55-2.607-9.103-2.64-3.478-.025-6.922.611-8.844 1.632-1.947 1.035-4.038 3.496-5.482 6.451-1.672 3.422-2.327 6.479-2.307 10.777.019 4.215.687 7.26 2.245 10.235 1.22 2.329 3.289 4.938 4.599 5.796s3.979 1.82 5.931 2.136 5.16.274 7.127-.095 5.095-2.004 6.95-3.633 3.654-4.082 3.998-5.451c.597-2.378.963-2.489 8.185-2.489h7.56l-.653 3.25c-.359 1.788-1.874 5.043-3.367 7.235s-4.232 5.009-6.088 6.259-5.633 2.945-8.394 3.765-8.201 1.446-12.088 1.39zm307.576.033c-4.205-.037-9.817-.651-12.472-1.365s-6.7-2.613-8.987-4.221c-2.653-1.864-5.158-4.902-6.915-8.385-1.515-3.004-3.034-7.956-3.376-11.006s-.097-8.07.544-11.156 2.484-7.603 4.096-10.037c1.79-2.702 4.811-5.449 7.759-7.053 2.655-1.445 8.109-3.169 12.119-3.832 5.585-.922 9.028-.934 14.709-.051 4.08.634 9.139 2.031 11.243 3.104s5.189 3.505 6.857 5.405 3.817 5.509 4.776 8.02c1.355 3.548 1.647 6.638 1.311 13.855-.282 6.061-1.02 10.402-2.122 12.492-.929 1.762-3.338 4.804-5.353 6.761-2.438 2.368-5.817 4.222-10.104 5.547-4.194 1.295-9.108 1.966-14.086 1.922zm.41-9.933c2.378 0 5.968-.972 8.461-2.29 2.765-1.462 5.037-3.653 6.287-6.061 1.076-2.074 2.17-5.661 2.431-7.971s-.063-6.193-.719-8.629c-.67-2.488-2.604-5.84-4.413-7.65-1.796-1.796-5.185-3.757-7.66-4.434-3.44-.94-5.453-.947-8.94-.03-2.475.65-5.793 2.393-7.373 3.873s-3.493 4.139-4.25 5.909-1.377 5.612-1.377 8.538c0 3.529.758 6.823 2.25 9.782 1.644 3.26 3.452 5.068 6.712 6.712 2.479 1.25 6.298 2.25 8.593 2.25zm-737.32 9H23.938l-11.969-12L0 288h229.734 229.734v12 12zm255.266 0h-9.5v-34-34l2.25-.151c1.238-.083 5.512-.24 9.5-.348l7.25-.197v12.848V269h21.47 21.47l.28-12.75.28-12.75 9.25-.094 9.25-.094v34.344V312h-9.5-9.5v-15-15h-21.5-21.5v15 15h-9.5zm85.931-.095l-7.288-.193 1.844-4.606a346.38 346.38 0 0 1 4.416-10.356l2.572-5.75h15.013c11.35 0 15.01-.305 15-1.25-.007-.687-1.751-5.975-3.876-11.75l-5.991-15.796-2.127-5.296 6.569.296 6.569.296 10.923 26.5 10.934 27.294c.006.437-3.186.662-7.093.5l-7.104-.294-2.206-5.5-2.206-5.5-12.057-.28-12.057-.28-2.273 6.079-2.273 6.079-7.288-.193zm133.235.095c-3.483 0-6.633-.3-7-.667s-.667-12.742-.667-27.5V257h6.968 6.968l.282 11.586.282 11.586 12.156-11.586L747.282 257l8.844.018 8.844.018-11.5 10.847-11.5 10.847 7.526 9.885 12 15.561c2.461 3.122 4.741 5.709 5.067 5.75s2.321-4.201 4.433-9.426l3.839-9.5h15.317c8.586 0 15.317-.402 15.317-.914 0-.503-2.645-8.153-5.878-17L793.714 257h6.246 6.246l5.779 14.25 11.131 26.694c2.944 6.844 5.352 12.826 5.352 13.294s-3.236.718-7.192.556l-7.192-.294-2.206-5.5-2.206-5.5-11.94-.279-11.94-.279-2.395 6.029-2.395 6.029-16.017-.017-16.017-.017-8.842-11.983c-4.863-6.591-9.159-11.983-9.547-11.983s-2.372 1.706-4.408 3.792c-3.662 3.75-3.703 3.883-3.703 12V312zm134.083-.204l-6.75.296v-22.546V267h-9.5-9.5v-5-5h26 26v5 5h-9.481-9.481l-.269 22.25-.269 22.25zm38.75.204h-6.5v-27.5V257h6.5 6.5v10.5V278h15 15v-10.5V257h7 7v27.5V312h-7-7v-12-12h-15-15v12 12zm136 0h-6.5v-27.5V257l8.25.029 8.25.029 13.5 19.116 13.5 19.116.272-19.145.272-19.145h6.478 6.478v27.5V312h-7.254-7.254l-13.996-18.992c-7.698-10.446-14.333-18.996-14.746-19s-.75 8.542-.75 18.992v19zm154.266 0h-75.766v-12-12h87.734 87.734l-11.969 12L1255 312zm-949.5-45H0l11.969-12 11.969-12h217.766 217.766v12 12zm961.467 0h-87.733v-11.992-11.992l60.591-.258 60.591-.258-11.841-11.626c-6.512-6.394-16.791-16.069-22.842-21.5l-23.5-20.453c-6.874-5.818-18.824-15.518-26.555-21.555s-19.881-15.222-27-20.412-21.849-15.395-32.733-22.679-29.259-18.905-40.835-25.826S1009 80.877 997.634 74.778s-28.09-14.655-37.165-19.013-23.925-11.219-33-15.246-25.589-10.992-36.698-15.478-28.884-11.262-39.5-15.057-18.893-6.919-18.393-6.942 9.041 2.475 18.979 5.551 28.205 9.195 40.591 13.596 29.271 10.693 37.521 13.98 23.55 9.643 34 14.124 30.925 14.051 45.5 21.265 34.825 17.761 45 23.437 25.475 14.579 34 19.785 24.275 15.333 35 22.504 27.375 18.89 37 26.042 23.125 17.52 30 23.039 18.373 15.078 25.551 21.241 19.328 17.052 27 24.197 18.892 17.988 24.932 24.094L1278.935 267zM134.969 204h-19.5v-48.5V107h-27.5-27.5V95.5 84h74.5 74.5v11.5V107h-27.5-27.5v48.5V204zm98 0h-13.5v-27-27h34.099c29.489 0 34.565-.221 37.544-1.635 1.895-.899 4.1-2.902 4.901-4.45s1.449-4.3 1.441-6.115-.572-4.4-1.252-5.745-2.811-3.37-4.735-4.5c-3.314-1.947-5.299-2.071-37.748-2.364l-34.25-.31v-8.989-8.989l43.274.299 43.274.299 6.721 3.31c3.828 1.885 7.74 4.684 9.088 6.5 1.302 1.754 2.879 4.719 3.505 6.589s1.138 6.497 1.138 10.282-.608 8.331-1.352 10.101-2.82 4.647-4.614 6.394-4.561 3.714-6.148 4.371-2.876 1.478-2.864 1.824 1.447 1.304 3.189 2.129 4.028 2.682 5.081 4.126 2.535 5.269 3.295 8.5 1.389 9.065 1.398 12.965.637 9.075 1.395 11.5 1.707 5.196 2.107 6.159c.674 1.621-.377 1.75-14.273 1.75-13.349 0-15.078-.193-15.708-1.75-.39-.963-1.024-7.036-1.409-13.497-.57-9.547-1.084-12.262-2.745-14.5-1.124-1.514-3.126-3.309-4.448-3.989-1.671-.859-8.573-1.24-22.654-1.25l-20.25-.015v17.5V204zm112.267 0c-11.605 0-14.86-.282-14.443-1.25.296-.687 4.106-8.9 8.468-18.25l7.93-17 30.139-.265c21.087-.185 30.139-.595 30.139-1.364 0-.605-4.551-11.961-10.112-25.235l-11.985-28.886-1.873-4.75 12.735.019 12.735.019 10.447 22.731 22.25 48.092 11.803 25.75c0 .214-6.658.389-14.795.389h-14.795l-4.009-9.75-4.009-9.75h-23.77-23.77l-4.052 9.75-4.052 9.75zm130.733 0h-13.5v-48.5V107h13.5 13.5v48.5V204zm46.987 0h-13.487v-48.5V107l16.25.039 16.25.039 27 34.192 27 34.192.263-34.231.263-34.231h12.987 12.987v48.5V204l-15.25-.071-15.25-.071-9.048-11.179-27.5-33.561-18.452-22.382-.263 33.632-.263 33.632zm144.013 0h-19.5v-32.948-32.948l49.25-.302c42.759-.262 49.717-.515 52.797-1.916 1.951-.888 4.763-3.06 6.25-4.827 2.145-2.549 2.703-4.24 2.703-8.186 0-2.735-.707-6.34-1.571-8.011-.986-1.907-3.313-3.843-6.25-5.2-4.566-2.11-5.865-2.169-53.929-2.448l-49.25-.286V95.464 84h54.776c31.932 0 58.235.434 63.069 1.04 4.561.572 10.732 1.952 13.713 3.068s7.563 3.497 10.181 5.292c3.554 2.436 5.63 4.955 8.188 9.939 2.801 5.456 3.434 7.815 3.462 12.919.019 3.439-.757 8.562-1.728 11.404-1.211 3.544-3.235 6.536-6.462 9.551-2.585 2.415-6.835 5.267-9.446 6.339s-4.748 2.23-4.75 2.574 1.384.903 3.08 1.242 4.406 1.558 6.023 2.709 3.781 3.745 4.811 5.764 2.369 5.512 2.974 7.761 1.491 9.693 1.968 16.542c.675 9.702 1.383 13.547 3.202 17.405l2.72 5.702c.211.412-9.284.75-21.101.75h-21.486l-1.196-3.25c-.658-1.787-1.5-8.885-1.873-15.773-.536-9.912-1.1-13.247-2.703-16-1.114-1.913-4.028-4.602-6.475-5.977-4.416-2.481-4.663-2.502-33.199-2.819l-28.75-.319v22.069V204zm154.376 0H806.54l1.882-4.25 8.395-18.25 6.513-14 30.506-.5 30.506-.5-6.505-15.5-12.368-29.75-5.863-14.25h12.783 12.783l8.087 17.75 22.148 48.1 14.061 30.75c0 .22-6.638.394-14.75.388l-14.75-.012-4.083-9.738-4.083-9.738-23.549-.268-23.549-.268-4.278 10.018L836.15 204h-14.805zm130.624 0h-13.5v-48.5V107h13.5 13.5v48.5V204zm78.706-.24l-45.206.26v-48.51V107h14 14v38.986 38.986l31.08.264 31.081.264.126 9 .126 9zM550.028 82c-.243 0-.762-.52-1.155-1.155-.442-.715-.274-.883.441-.441.635.392 1.155.912 1.155 1.155s-.198.441-.441.441zm7.441-.32c-3.575 0-5.038-.181-3.25-.403a31.83 31.83 0 0 1 6.5 0c1.788.222.325.403-3.25.403zm7.5.32a.5.5 0 1 1 0-1 .5.5 0 1 1 0 1zm1-2a.5.5 0 1 1 0-1 .5.5 0 1 1 0 1zm-17.941-1c-.243 0-.762-.52-1.155-1.155-.442-.715-.274-.883.441-.441.635.392 1.155.912 1.155 1.155s-.198.441-.441.441zm18.823-1c-.275 0-.222-.45.118-1s.843-1 1.118-1 .222.45-.118 1-.843 1-1.118 1zm-20.882-2a.5.5 0 1 1 0-1 .5.5 0 1 1 0 1zm23-1a.5.5 0 1 1 0-1 .5.5 0 1 1 0 1zm-24-1a.5.5 0 1 1 0-1 .5.5 0 1 1 0 1zm24.882-1c-.275 0-.222-.45.118-1s.843-1 1.118-1 .222.45-.118 1-.843 1-1.118 1zm-25.823-1c-.243 0-.762-.52-1.155-1.155-.442-.715-.274-.883.441-.441.635.392 1.155.912 1.155 1.155s-.198.441-.441.441zm35.189-2.825c-4.264.179-7.751.021-7.75-.351s3.807-.822 8.457-1 8.138-.02 7.75.351-4.193.821-8.457 1zM541.851 69c-.275 0-.222-.45.118-1s.843-1 1.118-1 .222.45-.118 1-.843 1-1.118 1zm29.118-2a.5.5 0 1 1 0-1 .5.5 0 1 1 0 1zm-27-1a.5.5 0 1 1 0-1 .5.5 0 1 1 0 1zm45 0a.5.5 0 1 1 0-1 .5.5 0 1 1 0 1zm-18.93-1c-.275 0-.982-.9-1.57-2s-.845-2-.57-2 .982.9 1.57 2 .845 2 .57 2zm-25.07-1a.5.5 0 1 1 0-1 .5.5 0 1 1 0 1zm46-1a.5.5 0 1 1 0-1 .5.5 0 1 1 0 1zm-45.118-1c-.275 0-.222-.45.118-1s.843-1 1.118-1 .222.45-.118 1-.843 1-1.118 1zm46.118-1a.5.5 0 1 1 0-1 .5.5 0 1 1 0 1zm-25-1a.5.5 0 1 1 0-1 .5.5 0 1 1 0 1zm-19-1a.5.5 0 1 1 0-1 .5.5 0 1 1 0 1zm44.93 0c-.275 0-.05-.841.5-1.869s.678-2.225.285-2.66-.151-.467.538-.071c.915.526.973 1.244.215 2.66-.571 1.067-1.263 1.939-1.538 1.939zm-26.761-1c-.148 0-.756-.487-1.352-1.083-.65-.65-4.091-.95-8.608-.75-4.139.183-7.333.026-7.099-.35s-1.139-3.53-3.051-7.009l-3.477-6.326 3.517-6.241L549.585 30l7.692.011 7.692.011 3.448 5.989L571.865 42h7.743c4.259 0 7.953.337 8.21.75s-3.204.619-7.691.458l-8.158-.292-3.329 6.114c-1.831 3.363-3.083 6.757-2.781 7.542s.427 1.428.279 1.428zm26.831-5a.5.5 0 1 1 0-1 .5.5 0 1 1 0 1zm-1-2a.5.5 0 1 1 0-1 .5.5 0 1 1 0 1zm-1-2a.5.5 0 1 1 0-1 .5.5 0 1 1 0 1zm-2-3a.5.5 0 1 1 0-1 .5.5 0 1 1 0 1zm241.5-43c-.733 0-1.033-.3-.667-.667s.967-.367 1.333 0 .067.667-.667.667zm-3-1c-.733 0-1.033-.3-.667-.667s.967-.367 1.333 0 .067.667-.667.667zm-3.5-1a.5.5 0 0 1-.5-.5.5.5 0 1 1 1 0 .5.5 0 0 1-.5.5z" fill="#1076c4"/></svg>