<svg xmlns="http://www.w3.org/2000/svg" xmlns:xlink="http://www.w3.org/1999/xlink" width="269.253" height="337.72" viewBox="0 0 201.94 253.29" xmlns:v="https://vecta.io/nano"><style><![CDATA[.B{fill-rule:evenodd}.C{fill:none}.D{stroke-miterlimit:22.926}.E{stroke-width:.262}.F{fill:rgb(100%,94.499207%,0%)}.G{stroke:rgb(100%,94.499207%,0%)}.H{fill:rgb(13.299561%,11.799622%,12.199402%)}.I{fill:rgb(100%,100%,100%)}.J{fill:rgb(92.89856%,10.998535%,13.699341%)}.K{stroke:rgb(13.299561%,11.799622%,12.199402%)}.L{stroke:rgb(92.89856%,10.998535%,13.699341%)}.M{fill:rgb(17.999268%,18.798828%,57.299805%)}.N{stroke:rgb(100%,100%,100%)}]]></style><defs><clipPath id="A"><path d="M93 223h17v30.289H93zm0 0"/></clipPath><clipPath id="B"><path d="M84 214h35v39.289H84zm0 0"/></clipPath><clipPath id="C"><path d="M2 162h199.941v84H2zm0 0"/></clipPath><clipPath id="D"><path d="M0 156h201.941v53H0zm0 0"/></clipPath><clipPath id="E"><path d="M93 223h17v30.289H93zm0 0"/></clipPath><clipPath id="F"><path d="M84 214h35v39.289H84zm0 0"/></clipPath><clipPath id="G"><path d="M2 162h199.941v84H2zm0 0"/></clipPath><clipPath id="H"><path d="M0 156h201.941v53H0zm0 0"/></clipPath><path id="I" d="M107.469 236.473c1.063.305 1.852 1.285 1.852 2.445 0 .961-.543 1.801-1.332 2.23l-.039 6c.504.172 1.949 1.68 1.949 2.938 0 1.691-1.176 3.074-2.617 3.074H95.766c-1.441 0-2.617-1.383-2.617-3.074 0-1.5.668-2.758 1.887-3.02l-.004-5.676c-1.121-.262-1.961-1.273-1.961-2.473 0-1.219.867-2.242 2.016-2.484l.012-.184-.887-12.441 14.348-.633-1.145 12.82"/><path id="J" d="M107.469 236.473c1.063.305 1.852 1.285 1.852 2.445 0 .961-.543 1.801-1.332 2.23l-.039 6c.504.172 1.949 1.68 1.949 2.938 0 1.691-1.176 3.074-2.617 3.074H95.766c-1.441 0-2.617-1.383-2.617-3.074 0-1.5.668-2.758 1.887-3.02l-.004-5.676c-1.121-.262-1.961-1.273-1.961-2.473 0-1.219.867-2.242 2.016-2.484l.012-.184-.887-12.441 14.348-.633-1.145 12.82zm0 0"/><path id="K" d="M103.066.277c-.875 9.449-9.809 19.234-13.309 30.523l-5.516-2.625c1.141 8.551-1.098 18.598 2.125 27.215h-1.074c-.984 0-1.793.734-1.793 1.633v1.605c0 .898.809 1.633 1.793 1.633h.684v2.996a1.64 1.64 0 0 0-1.039 1.512v1.605c0 .898.754 1.633 1.672 1.633h1.281v6.703h29.699v-6.703h1.043c.918 0 1.672-.734 1.672-1.633v-1.609c0-.676-.434-1.262-1.039-1.508v-2.996h.363c.984 0 1.793-.734 1.793-1.633v-1.605c0-.898-.809-1.633-1.793-1.633h-.52c3.582-10.32 8.641-22.828 4.625-35.5-2.273 1.75-3.508 3.203-5.781 4.953-2.066-3.242-3.406-7.68-5.133-11.895-.609.352-.703.328-1.316.68-.488-1.789-1.051-2.902-2.137-4.094-.262.703-1.051 1.254-1.312 1.953-.914-3.59-1.086-7.625-4.988-11.211"/><path id="L" d="M103.066.277c-.875 9.449-9.809 19.234-13.309 30.523l-5.516-2.625c1.141 8.551-1.098 18.598 2.125 27.215h-1.074c-.984 0-1.793.734-1.793 1.633v1.605c0 .898.809 1.633 1.793 1.633h.684v2.996a1.64 1.64 0 0 0-1.039 1.512v1.605c0 .898.754 1.633 1.672 1.633h1.281v6.703h29.699v-6.703h1.043c.918 0 1.672-.734 1.672-1.633v-1.609c0-.676-.434-1.262-1.039-1.508v-2.996h.363c.984 0 1.793-.734 1.793-1.633v-1.605c0-.898-.809-1.633-1.793-1.633h-.52c3.582-10.32 8.641-22.828 4.625-35.5-2.273 1.75-3.508 3.203-5.781 4.953-2.066-3.242-3.406-7.68-5.133-11.895-.609.352-.703.328-1.316.68-.488-1.789-1.051-2.902-2.137-4.094-.262.703-1.051 1.254-1.312 1.953-.914-3.59-1.086-7.625-4.988-11.211zm0 0"/><path id="M" d="M92.57 69.078h.094c.613 0 1.109.5 1.109 1.113v1.594c0 .609-.5 1.113-1.109 1.113h-.094c-.609 0-1.109-.504-1.109-1.113v-1.594c0-.613.5-1.113 1.109-1.113"/><path id="N" d="M92.57 69.078h.094c.613 0 1.109.5 1.109 1.113v1.594c0 .609-.5 1.113-1.109 1.113h-.094c-.609 0-1.109-.504-1.109-1.113v-1.594c0-.613.5-1.113 1.109-1.113zm0 0"/><path id="O" d="M99.336 69.078h.094c.609 0 1.109.5 1.109 1.113v1.594c0 .609-.5 1.113-1.109 1.113h-.094c-.609 0-1.109-.504-1.109-1.113v-1.594c0-.613.5-1.113 1.109-1.113"/><path id="P" d="M99.336 69.078h.094c.609 0 1.109.5 1.109 1.113v1.594c0 .609-.5 1.113-1.109 1.113h-.094c-.609 0-1.109-.504-1.109-1.113v-1.594c0-.613.5-1.113 1.109-1.113zm0 0"/><path id="Q" d="M107.145 69.078h.09c.613 0 1.113.5 1.113 1.113v1.594a1.12 1.12 0 0 1-1.113 1.113h-.09c-.609 0-1.109-.504-1.109-1.113v-1.594c0-.613.5-1.113 1.109-1.113"/><path id="R" d="M107.145 69.078h.09c.613 0 1.113.5 1.113 1.113v1.594a1.12 1.12 0 0 1-1.113 1.113h-.09c-.609 0-1.109-.504-1.109-1.113v-1.594c0-.613.5-1.113 1.109-1.113zm0 0"/><path id="S" d="M23.668 223.457l-6.219 20.25c19.25-2.578 37.402-9.23 53.953-21.84l-13.309-3.473c-11.473 5.266-22.949 5.25-34.426 5.063"/><path id="T" d="M177.906 219.855c2.07 6.75 4.699 13.223 6.773 19.977-18.383-3.738-37.988-8.27-55.895-19.074 4.438-1.156 10.258-4.805 14.695-5.965 11.473 5.266 22.949 5.25 34.426 5.063"/><path id="U" d="M187.574 194.547c-6.441 3.453-12.805 5.832-21.68 6.504-2.133 4.945-4.5 9.063-11.305 12.105 21.422 6.227 38.109-1.242 32.984-18.609"/><path id="V" d="M15.957 198.203c6.438 3.457 14.078 5.652 22.957 6.32 2.711 4.52 5.898 7.855 12.309 11.199-23.32 4.887-39.652 3.688-35.266-17.52"/><path id="W" d="M43.156 77.918h58.77v5.164H47.203v109.449c0 15.059 27.363 21.59 54.723 21.09v4.496c-29.387.535-58.77-6.477-58.77-22.648zm58.77 0h58.77v117.551c0 14.027-29.383 22.113-58.77 22.648v-4.496c27.359-.5 54.719-8.023 54.719-21.09V83.082h-54.719"/><path id="X" d="M37.867 71.176h64.059v6.742h-58.77v117.551c0 16.172 29.383 23.184 58.77 22.648v5.871c-32.027.582-64.059-7.062-64.059-24.687zm64.059 0h64.059v128.125c0 15.289-32.031 24.102-64.059 24.688v-5.871c29.383-.535 58.77-8.621 58.77-22.648V77.918h-58.77"/><path id="Y" d="M101.93 198.688l-2.473.063-3.316.027-3.32-.031-3.324-.094-3.328-.152-3.328-.211-3.332-.281-3.336-.34-3.336-.414-3.344-.48-3.344-.547-3.348-.625-3.352-.695-3.355-.77-3.355-.848-3.406-.937-6.5-.797-3.883-.402-2.555-.195-2.504-.117-1.234-.023-1.211.004-1.195.039-1.168.066-1.148.102-1.121.141-1.094.18-1.062.227-1.031.27-.996.32-.961.371-.922.426-.879.484-.832.543-.484.371-.664.563-.375.344-.684.738-.625.805-.562.879-.543 1.016-.27 2.125-.133 1.91-.016 1.785.102 1.668.219 1.555.328 1.438.441 1.328.551 1.223.652 1.113.754 1.008.852.902.938.801 1.027.703 1.105.605 1.184.516 1.25.426 1.32.348 1.383.266 1.441.191 1.5.121 1.555.051 1.605-.008 1.648-.066 1.699-.125 1.734-.176 1.777-.223 1.809-.266 1.844-.309 1.867-.348 1.895-.383 1.918-.41 1.871-.426h.48v-1.414l-.723.359-1.863.426-1.902.406-1.879.379-1.855.344-1.82.309-1.789.266-1.75.219-1.707.172-1.664.117-1.617.07-1.562.008-1.508-.051-1.445-.117-1.387-.187-1.316-.25-1.246-.324-1.176-.402-1.094-.477-1.016-.559-.934-.637-.852-.727-.77-.816-.684-.91-.59-1.012-.504-1.117-.406-1.23-.309-1.344-.207-1.461-.094-1.59.012-1.715.133-1.848.242-1.898.422-.801.516-.801.57-.73.617-.672.258-.234c.789.668 1.633 1.258 2.496 1.824l.598.371 1.215.668 1.223.582 1.23.496 1.246.418 1.25.34 1.258.273 1.266.207 1.27.148 1.914.121 1.922.012 2.551-.117h.523v-1.23l-.625.156-2.469.109a49.59 49.59 0 0 1-1.867-.012l-1.848-.117-1.832-.234-1.207-.227-1.195-.293-1.191-.363-1.18-.43-1.168-.516-1.156-.594-1.148-.68-1.137-.773-1.094-.848.285-.219.766-.5.809-.445.855-.395.898-.348.938-.301.98-.258 1.012-.211 1.051-.176 1.078-.137L29.16 192l1.141-.066 1.164-.031 1.188-.008 1.207.023 1.227.047 3.766.262 2.566.258 7.703.93 3.34.918 3.383.855 3.375.773 3.375.703 3.371.625 3.363.551 3.363.484 3.359.414 3.355.348 3.355.281 3.348.215 3.348.152 3.34.09 3.344.031 3.336-.023 2.453-.062zm-78.613 22.863l-7.383 22.707h1.215l1.953-.055 1.953-.109 1.957-.16 1.953-.211 1.953-.262 1.957-.309 1.957-.359 1.957-.406 1.957-.449 1.957-.5 1.957-.539 1.957-.59 1.957-.625 1.957-.672 1.961-.711 1.961-.746 1.957-.793 1.961-.828 1.961-.863 1.961-.902 1.961-.934 1.965-.973 1.961-1.004 1.961-1.039 1.961-1.066 1.965-1.098 1.961-1.129 1.965-1.16 1.961-1.184 1.965-1.211 1.914-1.207.34-.34.914.91-.648.324-1.945 1.227-1.973 1.219-1.977 1.191-1.973 1.164-1.973 1.133-1.973 1.105-1.973 1.074-1.977 1.043-1.973 1.012-1.977.977-1.977.945-1.973.906-1.977.871-1.977.836-1.977.797-1.977.758-1.977.715-1.98.68-1.98.633-1.977.59-1.98.551-1.977.504-1.98.457-1.98.406-1.98.363-1.98.316-1.984.262-1.98.215-1.98.164-1.984.109-1.984.055-2.719.004 7.766-23.879-.246-.016-1.07-.82-.914-.75-.879-.773-.844-.793-.812-.816-.781-.84-.75-.863-.723-.883L14.5 214l-.668-.926-.648-.945-.617-.969-.602-.992-.578-1.008-.562-1.031-.547-1.051-1.047-2.164-.996-2.242-1.43-3.516-1.387-3.695-2.867-8.074.566-1.965.605-1.73.684-1.645.766-1.562.836-1.484.918-1.398.988-1.32 1.059-1.238 1.129-1.16 1.199-1.082 1.266-1.004 1.332-.926 1.395-.852 1.453-.773 1.516-.703 1.57-.629 1.629-.555 1.68-.488 1.734-.418 1.785-.348 1.836-.281 1.887-.215 1.926-.152 1.977-.086 2.02-.023 2.063.035 2.105.102 2.145.152 2.18.219 2.219.273 2.25.328 2.301.387 3.105.734 3.094.68 3.105.633 3.117.582 3.129.531 3.145.484 3.152.434 3.164.387 3.172.336 3.188.285 3.199.234 3.211.18 3.223.133 3.234.082 3.246.031 2.879-.02v1.078l-2.883.02-3.262-.031-3.25-.078-3.242-.133-3.227-.184-3.215-.238-3.203-.285-3.195-.336-3.18-.387-3.172-.437-3.156-.488-3.145-.535-3.137-.586-3.121-.637-3.113-.684-3.078-.723-2.254-.379-2.227-.328-2.195-.27-2.152-.215-2.117-.156-2.074-.094-2.027-.039-1.988.027-1.941.082-1.891.148-1.844.211-1.793.273-1.742.34-1.687.406-1.633.473-1.578.539-1.52.609-1.461.676-1.398.746-1.34.82-1.277.887-1.211.961-1.148 1.035-1.082 1.109-1.012 1.188-.949 1.266-.879 1.34-.805 1.426-.73 1.504-.66 1.586-.586 1.672-.461 1.605 2.742 7.738 1.848 4.852.949 2.301.984 2.215 1.031 2.129.535 1.031.551 1.012.566.988.586.965.605.949.629.922.652.898.672.879.703.855.727.836.754.816.789.793.816.766.852.75.887.727.801.613.59.047.82.066 5.305.422 4.008.207 2.031.039 2.051-.023 2.074-.09 2.098-.176 1.063-.121 1.066-.145 1.074-.172 1.082-.199 1.09-.23 1.098-.258 1.105-.293 1.113-.324 1.125-.359 1.133-.395 1.141-.434 1.152-.473 1.129-.5.328-.219.988.988-.879.219-1.141.504-1.18.484-1.168.445-1.16.402-1.152.367-1.141.332-1.133.301-1.125.266-1.113.234-1.109.203-1.098.176-1.094.152-1.082.121-1.074.102-2.129.133-2.098.059-2.074-.012-3.062-.109-3.008-.199-4.695-.379m78.613-21.781l.883-.023 3.328-.137 3.328-.191 3.328-.242 3.32-.289 3.32-.344 3.32-.383 3.316-.434 3.313-.477 3.309-.516 3.313-.559 3.305-.594 3.305-.633 3.305-.668 3.301-.703 3.297-.738 3.305-.766 2.039-.555 1.984-.508 1.934-.453 1.891-.402 1.84-.355 1.785-.297 1.73-.238 1.672-.184 1.613-.121 1.543-.059 1.48.004 1.406.07 1.34.137 1.262.207 1.184.27 1.102.348 1.02.414.938.488.32.211-.922.711-1.082.738-1.094.66-1.113.578-1.125.508-1.137.438-1.148.375-1.156.313-1.164.25-1.758.277-1.77.168-1.773.066a50.56 50.56 0 0 1-2.309-.039l-.617-.156v1.387l.598-.152 2.344.043 1.828-.07 1.832-.176 1.828-.285 1.219-.266 1.207-.324 1.203-.391 1.191-.461 1.18-.531 1.168-.609 1.152-.691 2.32-1.699.391.324.68.711.594.793.504.879.414.965.324 1.063.23 1.156.129 1.258.027 1.359-.082 1.465-.187 1.57-.305 1.68-.395 1.691-.66.883-.746.895-.777.82-.797.75-.824.691-.848.625-.875.566-.895.508-.914.449-.937.398-.953.348-.98.297-.992.25-1.012.203-1.031.16-1.043.117-1.059.082-1.07.039-1.082.004-1.094-.027-1.105-.059-1.113-.09-1.117-.117-1.129-.145-1.129-.168-2.27-.395-2.277-.461-3.348-.773-.727-.363v1.414h.477l1.074.258 3.445.762 2.309.438 2.305.359 1.145.145 1.145.121 1.141.094 1.129.059 1.129.031 1.117-.004 1.109-.043 1.098-.082 1.086-.125 1.078-.168 1.059-.211 1.047-.262 1.023-.312 1.016-.367.988-.422.973-.48.949-.539.926-.602.898-.664.875-.73.848-.797.816-.867.789-.937.813-1.094.453-1.934.313-1.738.199-1.637.082-1.539-.027-1.445-.137-1.352-.25-1.258-.359-1.172-.461-1.078-.57-.988-.668-.898-.766-.801-.473-.395-.719-.539-.617-.406-1.031-.535-1.109-.453-1.184-.371-1.258-.289-1.328-.215-1.398-.145-1.461-.07-1.523-.004-1.59.059-1.648.125-1.707.184-1.758.246-1.812.301-1.867.355-1.91.41-1.957.461-2 .508-2.031.555-3.277.762-3.289.73-3.293.699-3.289.668-3.293.633-3.297.594-3.297.555-3.297.516-3.301.473-3.301.43-3.305.387-3.305.336-3.305.293-3.309.238-3.312.191-3.312.137-.848.02zm0-27.199l.379-.004 3.266-.074 3.285-.125 3.293-.18 3.301-.23 3.32-.285 3.328-.336 3.34-.391 3.352-.445 3.363-.5 3.379-.551 3.387-.609 3.402-.66 3.414-.719 3.422-.773 3.438-.824 3.445-.883 1.938-.555 1.922-.504 1.898-.449 1.871-.391 1.844-.332 1.813-.273 1.789-.211 1.758-.145 1.727-.082 1.695-.012 1.664.055 1.633.129 1.598.199 1.563.273 1.531.352 1.492.43 1.453.512 1.418.59 1.379.676 1.336.762 1.293.844 1.254.934 1.207 1.023 1.164 1.113 1.117 1.207 1.07 1.297 1.02 1.395.973 1.488.926 1.586.875 1.684.824 1.785.852 2.074-10.758 27.527a31.22 31.22 0 0 1-.742 1.258l-.785 1.133-.844 1.035-.902.945-.961.844-1.016.75-1.078.648-1.133.551-.785.309-2.152.605 3.77 7.965 1.664 3.887 1.215 3.137 1.078 3.148.707 2.375a85.1 85.1 0 0 1 .605 2.383l.488 2.324-2.891-.367-2.145-.293-2.137-.316-2.137-.34-2.133-.363-2.129-.391-2.125-.41-2.121-.437-2.117-.457-2.113-.484-2.105-.512-2.098-.535-2.098-.559-2.09-.59-2.082-.613-2.078-.637-2.066-.668-2.066-.695-2.055-.719-2.051-.75-2.039-.777-2.031-.801-2.027-.836-2.016-.863-2.008-.891-2-.918-1.988-.953-1.98-.98-1.973-1.012-1.961-1.039-1.949-1.074-1.871-1.062-.582-.145.637-1.273.477.477 1.867 1.063 1.938 1.066 1.945 1.031 1.957 1.004 1.969.977 1.973.941 1.988.914 1.992.887 2.004.855 2.012.828 2.02.801 2.027.77 2.035.742 2.043.719 2.051.688 2.055.664 2.066.633 2.07.613 2.074.582 2.082.559 2.09.531 2.094.504 2.098.484 2.105.457 2.109.434 2.113.41 2.117.383 2.121.363 2.125.336 2.125.316 3.523.473-.996-3.941-.727-2.332a108.46 108.46 0 0 0-1.102-3.105l-1.23-3.094-2.379-5.379-2.887-6.008a207.38 207.38 0 0 1-6.969.16 166.69 166.69 0 0 1-3.125-.027l-2.762-.113-2.5-.191-2.332-.262-2.246-.336-9.02-1.77h-.484v-1.23l.66.164 9.016 1.77 2.219.328 3.082.332 2.543.164 2.84.082 3.234.004 6.344-.176.305-.035c.598-.117 1.176-.273 1.762-.457l1.094-.414 1.047-.508.992-.598a18.2 18.2 0 0 0 .941-.691 18.72 18.72 0 0 0 .887-.785 16.19 16.19 0 0 0 .84-.879 20.81 20.81 0 0 0 .789-.969l.742-1.066.672-1.137 10.574-27.055-.68-1.652-.805-1.742-.848-1.637-.898-1.539-.941-1.441-.988-1.348-1.031-1.25-1.074-1.16-1.113-1.066-1.156-.98-1.199-.895-1.238-.809-1.277-.727-1.32-.648-1.359-.566-1.395-.488-1.434-.414-1.477-.336-1.508-.27-1.547-.191-1.582-.121-1.621-.059-1.652.016-1.684.078-1.719.141-1.754.207-1.781.266-1.816.328-1.84.387-1.871.441-1.898.496-1.941.559-3.465.887-3.453.832-3.441.773-3.426.723-3.418.664-3.402.609-3.395.559-3.379.5-3.371.445-3.355.395-3.348.34-3.332.285-3.32.23-3.312.18-3.297.129-3.285.07-.395.004"/><path id="Z" d="M101.598 242.199c2.824 0 5.129 1.359 5.129 3.023s-2.305 3.023-5.129 3.023-5.133-1.359-5.133-3.023 2.305-3.023 5.133-3.023"/><path id="a" d="M101.684 239.414c3.273 0 5.945.289 5.945.648 0 .352-2.672.641-5.945.641s-5.945-.289-5.945-.641c0-.359 2.672-.648 5.945-.648"/><path id="b" d="M101.5 249.719c2.676 0 4.855.32 4.855.711s-2.18.715-4.855.715-4.859-.324-4.859-.715 2.184-.711 4.859-.711"/><path id="c" d="M97.211 225.051h.801v9.117c0 1.414 1.965 1.008 1.965 0l.004-9.125.363.008-.008 9.117c0 1.441 1.805.996 1.715 0v-9.117h.363l-.004 9.117c0 1.391 1.926 1.035 1.926 0v-9.117h1.105v8.656c0 2.301-1.754 4.18-4.051 4.18a4.19 4.19 0 0 1-4.18-4.18v-4.477"/><path id="d" d="M97.211 225.051h.801v9.117c0 1.414 1.965 1.008 1.965 0l.004-9.125.363.008-.008 9.117c0 1.441 1.805.996 1.715 0v-9.117h.363l-.004 9.117c0 1.391 1.926 1.035 1.926 0v-9.117h1.105v8.656c0 2.301-1.754 4.18-4.051 4.18a4.19 4.19 0 0 1-4.18-4.18zm0 0"/><path id="e" d="M88.074 34.5c-.867 1.395-1.043 2.102-.906 3.777 1.008 2.277 2.242 2.352 2.875 0-.008-1.586-1.168-2.379-1.969-3.777m9.063 7.402c.297 3.918 2.02 5.898 4.531 6.797-.105-4.367-1.199-7.676-4.531-6.797m-6-.32c6.484 1.082 4.281 7.746 1.75 12.762-1.914-2.449-2.672-6.465-1.75-12.762m20.195 8.855v5.285c-.652-.012-1.309-.527-1.961-1.512-.141-1.672 1.094-2.379 1.961-3.773m0-20.164l-.422.691c-1.437 1.922-1.875.457-2.23-.84-.219-4.324-1.023-8.652-1.746-12.977-.75-2.883-2.699-2.645-2.23 1.254 3.855 18.66 1.988 25.105-.07 34.75-.406 1.645 1.141 2.023 1.672 0l3.977-13.605c.363.496.715.938 1.051 1.219zm0-11.453v6.02l-.199.992c-1.527-1.797-1.891-4.594-1.012-8.422.465.227.91.648 1.211 1.41M86.41 47.715a47.72 47.72 0 0 0 2.27 6.27c.98 1.57 2.043.68 1.586-.754-1.02-2.105-2.23-4.016-3.855-5.516m29.641-18.074c.875-5.195-.539-4.629-1.43-5.789-.527 4.063.109 4.133 1.43 5.789m-4.719-4.801v-6.02c.438 1.117.57 2.965 0 6.02m0 15.926V30.273l1.273-2.074c2.172 3.555 2.238 7.281.398 11.348-.398 1.684-.992 1.785-1.672 1.219m0 14.957v-5.285l.004-.004c.801 1.398 1.961 2.191 1.969 3.777-.66 1.027-1.316 1.523-1.973 1.512"/><path id="f" d="M111.133 25.832c-1.527-1.797-1.891-4.594-1.012-8.422 1.211.594 2.305 2.496 1.012 8.422zm4.918 3.809c-1.316-1.656-1.953-1.727-1.43-5.789.891 1.16 2.305.594 1.43 5.789zM88.074 34.5c-.867 1.395-1.047 2.102-.906 3.777 1.008 2.277 2.242 2.352 2.875 0 0-1.586-1.168-2.379-1.969-3.777zm23.262 15.934c-.867 1.398-2.102 2.102-1.965 3.777 1.313 1.977 2.621 2.051 3.934 0 0-1.586-1.168-2.379-1.969-3.777zm-6.633-32.031c3.855 18.66 1.988 25.105-.07 34.75-.402 1.645 1.141 2.023 1.676 0l3.973-13.605c1.098 1.504 2.129 2.512 2.723 0 1.84-4.07 1.773-7.793-.395-11.348l-1.699 2.766c-1.437 1.922-1.875.457-2.23-.84-.219-4.324-1.023-8.652-1.746-12.977-.746-2.883-2.699-2.645-2.23 1.254zm-7.566 23.5c3.332-.879 4.426 2.43 4.531 6.797-2.516-.898-4.234-2.879-4.531-6.797zm-6-.32c6.484 1.082 4.281 7.746 1.75 12.762-1.914-2.449-2.672-6.465-1.75-12.762zm-4.723 6.133c.566 1.996 1.297 4.074 2.266 6.27.98 1.57 2.043.68 1.586-.754-1.02-2.105-2.23-4.016-3.852-5.516zm0 0"/><path id="g" d="M96.371 53.535c1.852.977 2.633-.035 2.348-3.043 1.695 1.102 3.066 2.258 2.188 3.789-1.281 1.762-4.125 1.246-4.535-.746"/><path id="h" d="M96.371 53.535c1.852.977 2.633-.035 2.348-3.043 1.695 1.102 3.066 2.258 2.188 3.789-1.281 1.762-4.125 1.246-4.535-.746zm0 0"/><path id="i" d="M115.582 53.742l.801-5.512c-1.723 1.008-1.574-.562-.715-3.91-1.246.746-2.965 2.172-2.312-.18 1.426-5.512 4.801-11.91 7.203-17.867.809 3.191.945 6.852-1.332 12.18l2.043-1.156c.344 2.398-.852 4.801-1.957 7.199l1.957-.266c-1.398 4.168-3.566 6.797-5.687 9.512M93.801 37.125c-1.598-4.34-2.422-9.074 5.844-18.473.566 8.891 8.293 19.383 4.805 24.125-2.766-4.992-6.941-8.762-8.293-14.984-1.633 1.602-1.57 6.223-2.355 9.332"/><path id="j" d="M115.582 53.742l.801-5.512c-1.723 1.008-1.574-.562-.715-3.91-1.246.746-2.965 2.172-2.312-.18 1.426-5.512 4.801-11.91 7.203-17.867.809 3.191.945 6.852-1.332 12.18l2.043-1.156c.344 2.398-.852 4.801-1.957 7.199l1.957-.266c-1.398 4.168-3.566 6.797-5.687 9.512zM93.801 37.125c-1.598-4.34-2.422-9.074 5.844-18.473.566 8.891 8.293 19.383 4.805 24.125-2.766-4.992-6.941-8.762-8.293-14.984-1.633 1.602-1.57 6.223-2.355 9.332zm0 0"/><path id="k" d="M155.52 95.551l-.457 12.688h2.059l7.199-2.172 3.773-1.715 9.242-3.785 2.207-.406 4.637-3.871-7.75-.77-9.137.371"/><path id="l" d="M155.52 95.551l-.457 12.688h2.059l7.199-2.172 3.773-1.715 9.242-3.785 2.207-.406 4.637-3.871-7.75-.77-9.137.371zm0 0"/><path id="m" d="M50.914 104.68c-.172-.008-.504-.035-.57 0v.039h-.363v-.039h-.121v-.039h-.117c0-.082-.039 0-.039-.082-.082 0-.441-.039-.523 0v.043h-.078l-.039.039v.039l-.043.039h-.078l-.039.043v.039l-.043.039c-.039 0-.078.039-.117.039 0 .082-.039 0-.039.082h-.082c-.039 0-.121.039-.16.039l.281-.121v.082h-.359l-.082-.082v-.078h-.719c0 .121-.359.359-.359.438h-.082v.043l-.437.117v.363c.078 0 1.078.277 1.16.359v.039s.16.078.195.078c0 .082.082.082.082.082v.039c.082.039.242.121.32.199.359 0 .762.242 1.121.242 0 .078.039.039.078.039v.039h.121l.039.082c.039 0 .082.039.121.039 0 .078.199.117.199.16.234 0 .516.105.773.164zM0 103.57c2.93-4.27 8.461-4.961 14.363-5.141 6.855-3.543 14.34-1.176 21.957-2.777l11.426 1.145c1.105-.211 2.16-.32 3.168-.336v1.695c-.32-.047-.672-.074-.812.008v.051h-.094a.4.4 0 0 1-.195.195c0 .098-.148.145-.148.145l-.789-.062h-.117v.063h-.301v.059l-.719.359v.602c.117 0 .117.238.238.238.063.059.121.238.242.238 0 .063.238.301.297.359h.063l.059.121c.238 0 .297.301.539.301l.063.117c.176 0 .598.359.715.422 0 .117.242.238.301.301v.539c-.898 0-2.035-.062-2.816-.301-.117-.004-.898-.301-.898-.422h-.121v-.059h-.117v-.059c-.121-.062-.66 0-.781 0l-.059-.062-.059-.059c0-.238-.121-.48-.121-.719-.059 0-.059-.059-.059-.121l-.121-.059v-.062s-.18-.059-.238-.059c0-.059-.18-.117-.242-.18h-.777l-.059.063-.062.059v.117l-.059.063h-.059l-.062.059c0 .359.063 1.199-.117 1.559h-.062v.121c-.059 0-.418.418-.477.48-.359 0-1.437-.121-1.738.059v.059h-.121c0 .059-.059.121-.059.18-.121 0 0 .063-.121.063v.117h-.059v.121c-2.156 0-4.074-.48-6.172-.48-.059-.059-.477-.301-.66-.301l-.059-.117h-.121c-.059-.121-.898-.598-1.078-.66-.719-.301-1.555-.059-2.277-.301-.535-.18-1.137-.238-1.676-.598-.059-.059-.059-.18-.18-.18v-.539c.059 0 .121-.18.238-.18 0-.121.301-.359.359-.418v-.422c-2.152 0-4.793-.297-6.828.121-.418.059-.961.059-1.316.301-.062.059-.121.18-.242.238v.777c.242.242 1.141.602 1.438.602 0 .059.063.121.121.121 0 .176.059.895-.059 1.078h-.062l-.059.176c-.121 0-.359.242-.48.242-.957.301-2.215-.301-3.176.059-.059 0-.598.301-.598.359-.301 0-.66-.059-.898-.059 0-.059-.18-.121-.238-.121 0-.059-.422-.297-.48-.297l-.062-.062c0-.059-.18-.18-.238-.18 0-.059-.117-.117-.117-.18-.363 0-.84-.121-1.262-.121 0 .121-1.316 0-1.437 0 0-.121-.059 0-.059-.117-.059-.004-.121-.062-.121-.121-.117 0 0-.059-.117-.059 0-.059-.062-.121-.121-.18 0-.18-.121-.418-.121-.602-.059 0-.18-.297-.18-.355-.059-.004-.121-.121-.121-.184l-.059-.059c-.059 0-.117-.059-.176-.121-.363 0-.781.121-1.141.121 0 .121-.18.121-.242.18l.004.059c-.062.063-.363.359-.422.359 0 .063-.121.184-.18.184 0 .059-.059.117-.059.176-.059 0-.121.063-.18.063 0 .117-.238.238-.301.238-.012.379.094.168.094.379h.102l.055.105h.105c0 .105.051 0 .051.105a1.32 1.32 0 0 1 .477.156v.051c.051.055.316.211.422.211.051.055.262.266.367.266l.051.051v.105c.211 0 .371.527.477.527v.105c.102 0 .102.105.102.105h.055l.051.156c.055 0 .16.16.211.16 0 .051.055.105.105.105l.051.051.055.051c0 .105.156.105.156.211h.109c0 .211 1.105.422 1.367.371.523-.16 1.156-.211 1.684-.371.211-.051 1.055-.262 1.262-.105v.055h.16v.051c.051 0 .105-.051.105.055h.207c0 .105.211.051.266.051v.055h.156v.051c.211.105.789-.051 1 0 .949.211 2.105.371 3 .895v.055c.316 0 1.266.527 1.422.734h.051c.055.055.105.211.16.266 0 .051 0 .105.051.105v.156l.055.055h.051l.055.051v.105l.051.051c.055 0 .16.055.16.105h.051-.051l.051.055h.105v.051h.105c0 .105.156.105.156.211.16 0 .371.266.527.266 1.738.156 3.738-.266 5.422.051h.629l.895.16c.949.262 2.055.207 3 .578 1.738.684 3.371 2.84 5.371 2.84 0 .262 1.313.16 1.313.262 1.371 0 2.949-.156 4.16.266.262.105.84.316 1.156.316l.055.105c.684 0 1.313.734 1.953.785.078 0 0 .039.078.039 0 .035.039.074.074.074 0 .078.227.418.305.418 0 .113.152.191.152.305l.074.035c0 .039.113.191.152.191.324.469.805.938 1.25 1.371v2.395a2.76 2.76 0 0 1-1.883-1.355l-11.137-2.945c-3.23-3.594-7.387-4.902-12.672-3.453-5.348-.516-5.039-5.121-12.16-2.434-3.273-3.168-7.922-4.141-13.062-4.316m50.914 3.754c.09.02.18.035.266.035.039.039.16.078.199.121v.039l.121.039c0 .082.16.16.199.199v.043c.32.277.84.16 1.242.16 0-.043.16-.043.16-.121h.078l.082-.082c0-.078.039-.398 0-.477h-.043c-.039-.082.043-.281 0-.363h-.039v-.16l-.078-.039v-.078c-.082 0 0-.043-.082-.043v-.078a.29.29 0 0 1-.16-.199c-.039 0-.078-.039-.117-.039l-.043-.043c0-.039-.68-.559-.719-.559 0-.082-.121-.082-.121-.16-.039 0-.078-.039-.117-.039 0-.082-.082-.082-.082-.082v-.039c-.039-.039-.16-.121-.16-.16a.19.19 0 0 1-.121-.121l-.039-.039h-.039V105h-.039v-.039h-.043l-.039-.039v-.082l-.078-.078c-.043 0-.121-.043-.121-.082h-.066zm12.219-.098v2.129c-.121-.035-.242-.078-.363-.141-.031-.031-.09-.117-.148-.117 0-.031-.086-.148-.086-.176l-.031-.027-.027-.031c-.117 0-.234-.176-.352-.176-.055-.145-.582-.145-.699-.379l-.117-.055c-.172-.176-.871-.672-1.078-.672-.145-.293-.93-.406-1.223-.406 0-.031-.059-.059-.086-.059v-.031s-.059 0-.059-.059c-.059 0-.203-.117-.203-.176h-.059l-.031-.055h-.055c-.293-.09-.965.086-1.227-.059v-.031c-.027 0-.059.031-.059-.027h-.086l-.059-.059h-.059c0-.027-.027-.059-.059-.059v-.117c.086-.059.32-.465.496-.465l.031-.059h.055c0-.059.09-.086.09-.086.086 0 .641 0 .641.027.438 0 .902.289 1.309.289l.031.059a.5.5 0 0 0 .203.059c0 .031.09.059.117.059l.059.059h.086c.117.117.672.438.844.465.379.059 1.285-.113 1.547.148h.059c.059.059.234.145.32.176v.027c.074.035.172.031.277.023m0 8.582v-2.402l-.617.145c-.91.301-2.238.453-3.035.984-.187.113-.527.684-.793.684 0 .074-.039 0-.039.074h-.074c0 .074-.039 0-.039.074h-.078c-.074.039-.187.078-.227.152-.035 0-.074.039-.074.078h-.113c0 .039-.191.074-.191.113-.266 0-.719.113-.984.039-.836-.23-1.289-.758-2.273-.758-.152.148-.797.414-1.023.453-.383.113-1.289-.039-1.48.379-.227 0-.492.227-.797.227l-.379-.371v2.395c1.762.402 4.238-.25 7.203.82 1.637-1.477 3.309-2.477 5.016-3.086m0 13.188c-.098.02-.191.035-.289.059-2.367-1.184-4.465-1.129-6.645-.816-3.035.723-3.453-1.496-.258-4.352 1.289-.613 2.465-1.246 2.816-2.047.727-2.434 2.367-3.496 4.375-4.016v4.945c-1.473.5-4.043 1.063-4.566 1.176v.082c-.082 0-.324.082-.406.082l-.082.16c-.082 0-.242.082-.242.164h-.164l-.16.16v.164l-.082.082h-.082l-.078.078v.164c-.082 0-.082.16-.242.16 0 .164-.242.246-.406.246 1.633.02 3.141-.262 4.832-.262v.375c-.094 0-.281.188-.281.281h-.187v.281h-.094v.566c.094 0 .281.375.469.375l.094.191c.5 0 1.074.059 1.68.133zm0 27.633c-.836-.746-.859-1.816 0-3.105zM50.914 96.461c3.375-.051 6.238.934 8.828 2.457 1.387.43 2.461.551 3.391.539v5.324c-.266-.043-.52-.102-.742-.18l-.195-.047c0-.051-.098-.102-.145-.102l-.051-.094h-.047a1.23 1.23 0 0 1-.148-.441l-.098-.098c0-.391-.293-.828-.633-.926-.875-.242-2.195-.437-3.07-.437v-.051c-.633-.437-1.609-.633-2.195-1.266-.535-.586-1.219-.637-2-.637 0-.437 0-1.168.391-1.363 0-.242.098-.633.098-.926l-.047-.051h-.098v-.047c-.098-.051-.684 0-.828 0 0 .293-1.613.195-1.855.145-.086-.02-.309-.07-.555-.105zm16.148 24.535c-.066-.004-.129-.008-.195-.008-.746 0-1.355.375-1.355.836s.609.832 1.355.832c.066 0 .129 0 .195-.008zm0-13.785v1.773l-.652.027c0 .145-.352.434-.437.523-.059 0-.406.027-.406-.059h-.09c0-.031-.059-.059-.086-.059a.06.06 0 0 0-.059-.059c0-.059-.09-.059-.09-.117h-.203l-.059.059c0 .117-.172.262-.172.352l-.031.027c-.145 0-.289-.027-.406-.027-.059-.059-.293-.176-.352-.176l-.027-.031-.031-.027v-.059h-.027c0-.031-.059-.203-.059-.234l-.027-.027h-.031l-.027.027v.059h-.031v.117h-.031v.059c-.027 0-.055.027-.055.059-.203 0-.375-.02-.539-.062v-2.129c.141-.016.289-.047.391.004v.031c.234.145 1.195.23 1.43 0h.086l.031-.059h.086c.234-.234.672-.059.934-.059.164.168.66.051.973.066m0 7.848c-1.328.051-2.637.285-3.93.75v-2.402l.027-.008c.074 0 .188 0 .266-.074.074-.004.266 0 .266-.078 1.066 0 2.262.043 3.371-.016zm-3.93 2.766c1.215-.312 2.566-.426 3.93-.52v1.375h-.07c0 .082-.324.082-.324.246h-.164v.078c-.918 0-2.543 2.563-2.348 3.16.105.152-.34.371-1.023.605zm3.93 10.883c-1.137-.066-2.434.012-3.93.289v-1.566c1.277.164 2.703.395 3.93.285zm0 29.188l-1.008-.215c-1.355-.164-2.336-.527-2.922-1.051v-3.105c.5-.746 1.297-1.566 2.41-2.437l1.52-1.23v3.863l-1.262.598c0 .137-.066.207-.137.207 0 .27.07.609.07.883l.137.137h.203v-.07h.137l.543-.473v-.137c.063 0 .223-.258.309-.367zm-3.93-58.437c1.438-.016 2.535-.344 3.93-.324v1.527c-.039-.02-.066-.039-.086-.059-.535 0-1.953-.68-2.437-.195h-.098c-.879.879.242 2.391.973 3.074.098.098.73.488.832.488.207.211.566.457.816.68v.781c-.562-.023-1.195-.203-1.746-.34-.641-.145-1.465-.184-2.184-.309zm3.93 5.973h.109v-.684c-.035-.031-.07-.066-.109-.098zm0 3.555v-1.773c.121.008.219.035.25.109.09 0 .32.203.379.262.027 0 .289 0 .289-.027h.09c0-.352.672.086.699.113v.031l.086.059c.059 0 .293-.031.32 0v.027h.09l.027.031c0 .113 0 .262-.055.348h-.031l-.031.09h-.027s0 .055-.059.055v.031c-.379.293-1.164 0-1.516.293v.027c-.027.027-.145.059-.145.117-.027 0-.203.203-.203.203zm0 13.664v-1.652c.656.059 1.16.406 1.16.828s-.504.766-1.16.824m6.367-.406v1.023l-.039.016-.105.105-.051.105h-.211l.406-.133v-.023h-.195c-.262-.262-.312-.574-.312-.887.148 0 .32-.078.508-.207m-6.367-4.937l1.039-.074 2.945-1.793c-1.34-.289-2.672-.426-3.984-.379v-1.828c.348-.016.688-.047 1.012-.09 0 .07.574.141.645.141 0 .074.648.074.723.148v.07c.145.074.574.145.719.145l.145.141c.07 0 .289.074.289.145.141 0 .215 0 .285.074.289 0 .863.07 1.152 0v-.074h.215c0-.145.359-.141.359-.285h.145v-.07h.145v-.074h.145v-.07c.078-.043.219-.059.391-.062v2.609c-.91.16-1.902.484-1.902 1.082-.16 0-1.215.648-1.297.73h-.242v.082c-.469.313-2.223.777-2.926.809zm6.367 13.918c-1.562-1.187-3.434-2.336-6.367-2.516v-.992c.492-.043.953-.145 1.355-.324.188-.094.75-.379 1.035-.379l.188-.187 3.668.188.121.258zm0 28.031l-6.367-1.359v-3.398c.012-.02.023-.031.031-.043.137 0 .273-.203.34-.273.141 0 .75-.406.887-.473l.137-.07h-.137l-.066-.137h-.75c0 .066-.203.137-.273.137l-.168.082v-3.863l6.367-5.305v3.098l-3.477 2.918 3.477 1v.992c-1.23-.363-3.113-.285-3.949-.285l.883.07h-.27v.066h-.344c0 .207.07.477.07.684.066 0 .137.066.137.133.066 0 .543.41.543.41.066 0 .34.137.34.137.668.578 1.594.863 2.59.996v1.855c-.609-.047-1.187-.062-1.637-.062l-.203-.203c.137 0 1.227.41 1.227.613.066 0 .27.07.27.137.113 0 .227.008.344.02zm-6.367-60.121c1.504.016 3.359.438 6.367 2.086v4.242l-.32-.02c-.07-.074-.359-.289-.43-.289 0-.285-1.082-.863-1.223-1.148-.074 0-.289-.145-.289-.219-.145 0-.574-.504-.648-.648-.289 0-1.297-1.293-1.547-1.508-.047 0-.047-.102-.145-.102 0-.535-1.355-.66-1.766-.867zm6.367 24.133l.066-.035v-.102l.051-.055.051-.051c.68-.469 2.977-.469 3.758-.262.262.051.574.52.68.73 1.512 0 2.242-1.512 3.496-2.086.156-.055.418-.523.57-.68 0-.363.055-.832-.102-1.148h-.156v.055c-2.09 1.406-4.488.938-6.891.938-.234.359-.93 1.266-1.523 1.672zm0 .094v-.023h.066zm9.598-8.102v2.313c-1.105.297-3.668.211-4.695-.105-.402-.082-1.211-.484-1.617-.484l-.082-.164c-.164 0-.484-.16-.484-.242-.164 0-1.297-.648-1.379-.73-.246 0-.777.035-1.34.133v-2.609c.438-.016 1.074.063 1.336.063l1.152.719c0 .141 1.004 1.293 1.148 1.367 0 .07.219.289.289.289 0 .141.07 0 .07.141 1.656 0 3.313-.215 4.895-.574a4.11 4.11 0 0 1 .707-.113m0-5.176v1.535h-.203c-.039-.062-.187-.125-.207-.187-.125 0-.336-.062-.461-.062l-.023-.379-.082.023h.105s.02-.023.039-.023c.148-.312.148-.566.148-.941l.02-.023h.191l.039.063h.023l.02.063c.02 0 .082.086.082.105.023 0 .043.02.043.02.129 0 .199-.117.266-.191m0 25.121c-.488.039-.996.191-1.484.203l-2.945-3.969-.383 2.563c-1.836-.227-3.137-1.52-4.785-2.777v-3.953l.352.777h.094c0 .094.473.941.473 1.035.094 0 .188.094.188.188.188 0 .469.098.656.098 0-.191.285-.66.379-.66v-.187c.375 0 .844.094 1.129.094 0 .188.188.188.281.188 0 .094.188.094.188.281.188 0 .285.094.379.094l.094.191c.656 0 1.504 1.129 2.164 1.129 0 .094.094.188.188.188l.094.094v.188h.094v.379h.094c0 .094-.094.188.094.188v.375c.188 0 0 .094.188.094 0 .754 1.695.281 2.07.469v.098c.059.027.215.152.402.309zm-9.598 9.348l9.008-7.48.59.004v2.5l-9.598 8.074zm9.598 16.75l-9.598-2.047v-2.125c1.078.117 2.301.73 3.473.73v-.207c-.656-.652-2.145-.922-3.473-1.027v-1.855c1.344.184 2.813.094 3.945.094 0-.207-.203-.137-.27-.137v-.07h-.137v-.066h-.137c-.066-.066-.137-.137-.273-.137 0-.137-2.176-1.43-2.246-1.43-.203-.203-.516-.355-.883-.465v-.992l9.598 2.762v1.758h-.406.406v1.297c-.816-.273-1.699.203-2.312.133.664 0 1.508-.02 2.313.051zm-9.598-60.082l.84.473c3.059-.902 5.977-.184 8.758 2.148v4.066c-.426-.098-.816-.273-1.137-.594 0-.719.07-1.656-.363-2.23-.07-.07-.285-.145-.285-.289-.578 0-1.512-.359-2.305-.359 0 .074-.215.145-.285.145l-.074.07-.07.074c0 .145-.074.719 0 .863h.07v.145c.074 0 .434.359.434.43.145 0 .43.434.574.578 0 .141.145.215.145.285l.07.145v.934l-.07.074c-1.941 0-4.391.289-5.758-1.078v-.504c.145 0 0-.074.145-.074 0-.07.074-.285.145-.285v-.723l-.832-.051zm12.227 53.867l-2.629-.758v1.758c.738-.008 1.742-.016 2.629.172zm0-7.164v3.832c-.383-.031-.801-.008-1.246.063-.586-2.016.031-3.168 1.246-3.895m0-21.098h-.207c0 .188-.094.094-.187.094v.094h-.562c0 .094-.473.188-.566.188 0 .285 0 .941.094 1.129h.094v.191c.094.094.281.375.379.375a.2.2 0 0 0 .188.188v.188c.188 0 .281.285.281.379.094 0 .094.188.281.188 0 1.18-.172 2.766.207 3.938zm0-11.457v1.699c-.91.039-1.816.25-2.543.48l-.086.023v-2.312c.824-.066 1.742.047 2.629.109m0-5.648v2.172c-.031-.023-.059-.051-.086-.086v-.02c-.437 0-.922.168-1.363.063 0-.02-.082-.105-.082-.125-.34-.109-.711-.109-1.098-.105v-1.535c.031-.035.059-.059.09-.059v-.043l.023-.02c.063 0 .168 0 .207.02v.023h.043v.02c.188.105.336-.25.461-.25l.023-.043c.02 0 .059-.02.059-.043.129 0 .34-.02.441.043v.02c.254.129.797.023 1.027-.102v-.023c.074-.035.195.055.254.094m-2.629 27.355c1.039-.016 1.852-.16 1.844-.77-.535-1-1.176-1.156-1.844-1.102v-2.328c.406.336.977.82 1.105.82l.094.094c0 .188.375.469.375.656.188 0 .566.473.754.473 0 .094.188.281.285.281 0 .051.004.074.016.086v3.469l-1.246-.344-1.383 1.164zm2.629 24.789l-2.629-.562v-3.734c.684.059 1.34.18 1.84.43v.066h.477c-.477-.477-1.703-.477-2.316-.68v-1.227h.137l.066.137c.852 0 1.621.371 2.426.648zm-2.629-58.023a18.01 18.01 0 0 1 2.098 2.098c.18.008.355.023.531.039v2.207c-.828-.168-1.793-.078-2.629-.277zm2.629 8.051c.266.227.621.113.922.02.145-.043.273.082.398.082.082.273.816.273 1.066.336a2.01 2.01 0 0 0 .801-.062c.125-.039.293-.207.355-.312.125-.168.02-.566.02-.754-.02-.023-.043-.043-.043-.062-.332 0-.816-.504-1.004-.691-.168 0-.465.039-.609-.043-.336-.168-.504-.734-.965-.586-.25.082-.504.039-.773.039 0-.039-.148-.062-.148-.125l-.02-.012zm6.129 22.391c-.949-.512-2.145-1.516-2.957-1.516 0-.07-.07-.141-.145-.141 0-.07-.066-.141-.141-.141v-1.344c.141 0 0-.07.141-.07v-.141h.074l.078-.34-.094-.094v-.191l-.094-.09c-.094 0-.187-.098-.187-.191h-.187c-.094-.094-.66-.375-.66-.469-.094 0-.281-.094-.375-.094 0-.191-.187-.191-.281-.191 0-.094-.094-.187-.187-.281v-.941l.188-.187h.188v-.094h.188v-.094h.188v-.094h.281c0-.094.191-.187.285-.187l.094-.094v-.754c-.187 0-.473-.848-.66-.848v-.66l.188-.281h.094c.098-.187.473-.375.66-.473v-.094l.281-.187h.188c0-.187.098 0 .098-.187h.188c0-.094.375-.187.469-.281v-.094l.285-.094c0-.191.09 0 .09-.187.098-.004.379-.187.379-.285.094 0 .188-.094.281-.094l.094-.094c0-.094.188-.281.285-.281l.094-.094v-.754h-.094v-.187l-.191-.094c0-.094-.094-.285-.187-.285 0-.094-.187-.375-.281-.375l-.094-.094c0-.094-.094-.187-.094-.281-.094 0-.281-.187-.379-.187l-.094-.285h-.187c-.281-.187-1.129-.844-1.691-.562v.094h-.191v1.316l.094.094c.191 0 1.32 1.129 1.602 1.223v.66c-.094 0-.281.379-.281.469 0 0-.094.098-.094.188-.098 0-.379.191-.379.285-.094 0-.656.188-.656.281-.379 0-.754.188-1.129.188 0 .094-.285.281-.379.281v2.355l-.375.094v.094h-.453v6.949c.102.324.25.617.453.863h.094s0 .188.188.188c0 .188.379.375.379.656h.188v.191c.188 0 0 .094.188.094v.375h-.375v-.094h-.191c0-.187-.469-.187-.469-.469-.094 0-.281-.191-.379-.191 0-.137-.047-.074-.074-.102v3.469l6.129 1.695zm0-2.84v.441c-.305-.035-.605-.246-.836-.246v-.586h.418v.168h.168v.082h.168c0 .055.035.113.082.141m0-18.102v3.602c-.027.008-.059.023-.082.039v.078h-.164c0 .164-.078 0-.078.164-.242 0-.895.809-.973.973-.488 0-1.297.078-1.703-.164v-.082l-.324-.078v-.082c-.77-.598-1.789-.77-2.805-.723v-1.699c.793.055 1.559.066 2.203-.141.434-.145 1.871-.07 2.086-.504h.219c0-.215.359-.145.359-.359.07 0 .145-.145.285-.145 0-.07.219-.289.289-.289 0-.07.145-.141.219-.141 0-.145.359-.215.359-.359l.07-.074c.012 0 .027-.004.039-.016m0 52c-2.012.094-3.594-.961-4.738-3.18l-1.391-.297v-4.922c.488.168.988.305 1.527.305v-.273c-.375-.371-.922-.59-1.527-.715v-1.172l2.566.738c.09-2.848-.93-3.945-2.566-4.07v-3.832c1.34-.805 3.41-1.086 5.391-1.43a8.73 8.73 0 0 0 .738-.23v1.879l-4.133.777-.699.301.148.75h2.453l.402.453 1.828.219v1.141c-1.27.293-2.227 1.48-2.227 2.898s.957 2.605 2.227 2.895v5.629c-.836-.254-1.437-.961-1.437-1.789 0-.215.039-.422.113-.613-.559.34-.926.914-.926 1.559 0 1.039.957 1.891 2.125 1.891.043 0 .086-.004.125-.004zm0-63.988c-.078-.594-.074-1.156 0-1.691zm-6.129 4.625c2.43.25 4.418 1.348 6.129 2.965v2.504c-.5-.59-1.246-1.109-1.406-1.473-.215 0-.934-.719-1.152-.789v-.074c-.285-.141-1.078.145-1.437 0-.504-.141-1.152-.645-1.656-.789a2.78 2.78 0 0 0-.477-.137zm6.129 25.906v-.441c.027.02.059.027.086.027v.418c-.027 0-.059 0-.086-.004m1.676 25.539v3.172l-.078.078-.066.133-.07 1.148c.074.07.145.125.215.168v.965c-.297.137-.633.219-.988.219-.242 0-.473-.039-.687-.102v-5.629c.195.047.398.066.605.066a2.73 2.73 0 0 0 1.07-.219m0-6.578v1.09a2.73 2.73 0 0 0-1.07-.219 2.82 2.82 0 0 0-.605.066v-1.141zm0-5.504v2.484l-1.676.316v-1.879c.719-.258 1.266-.566 1.676-.922m0-9.609v4.008l-.969.906-.707-.195v-6.168a2.99 2.99 0 0 0 .57.25c0 .07.215.281.285.352 0 .215.141.355.141.566.07 0 .281.211.281.281zm0-10.582v2.625c-.039-.062-.066-.125-.066-.168-.559 0-.699-1.258-.699-1.676.277 0 0-.141.277-.141 0-.172.238-.391.488-.641m0 39.875c-.59.184-1.145.289-1.676.316v-1.094c.707-.035 1.32-.383 1.676-.883zm0-59.41c-.98-1.586-1.508-2.996-1.676-4.262V99.66c.184-1.285.781-2.402 1.676-3.406zm-1.676 3.328c.59.555 1.145 1.176 1.676 1.84v6.41c-.512-.094-1.289-.371-1.676-.25v-3.602c.078-.051.188-.211.25-.273v-.141h.07c.316-.508.074-1.016-.32-1.48zm4.73 42.27v10.73a1.03 1.03 0 0 1-.297-.125v-.066h-.137c-.27-.27-1.617-.875-1.617-1.215h-.945l-.059.059v-3.172c1.031-.445 1.762-1.508 1.762-2.742s-.73-2.301-1.762-2.746v-1.09zm0-14.414v13.844l-.598-3.277-2.457.461v-2.484c1.613-1.398 1.047-3.477.082-5.68l-.082.078v-4.008h1.578c0 .141.215.141.215.285.141 0 .211.211.281.281.262.262.605.41.98.5m0-3.645v1.871c-.102-.066-.164-.129-.164-.187h-.387l-.129-.129c0-.262-.52-.52-.648-.648v-.777l.129-.129zm0-3.062v.535a1.71 1.71 0 0 0-.461-.074l-.168.168a.38.38 0 0 1 .254-.254c0-.148.207-.27.375-.375m0-8.051v5.285h-.473c0 .141-.695 1.117-.836 1.258h-.836v-.141h-.281c-.137-.137-.277-.277-.418-.277 0-.098-.129-.258-.211-.391v-2.625c.355-.352.738-.762.492-1.172h-.141v-.281c-.281 0 0-.141-.281-.141v-.695h.141v-.281h.281c0-.277.137 0 .137-.277.699 0 1.57-.105 2.426-.262m0-8.637l-.043-.012h-.504v2.008c.113 0 .336.074.547.125zm0 51.355l-1.66-.293c-.484.23-.945.418-1.395.559v-1.66c.086-.121.16-.254.211-.395a1.83 1.83 0 0 1-.211.117v-.965c.402.23.824.047 1.34.102l1.715.363zm-3.055-53.977l.301.391 1.383-3.199c-.668-.828-1.227-1.613-1.684-2.359v-9.359c.809-.906 1.855-1.715 3.055-2.465v5.547c-.469 1.32-.488 2.887 0 4.734v5.586l-.035.031c-.238.891-1.211 2.188-1.211 3.078l-.406.324c-.082 0-.164.082-.164.164h-.242l-.082.078c0 .082-.406.488-.484.488 0 .648.242.891.406 1.375.242.648-.406 1.297-.406 1.863-.082 0-.164.082-.164.164-.074 0-.164-.012-.266-.031zm3.055-1.125v-5.586c.227.867.563 1.789 1.02 2.781 0 .16.324.16.324.324.082 0 .324.16.406.16 0 .488.242 1.863 0 2.188h-.082c0 .082-.082.406-.082.488-.078.082-.16.164-.16.242h-.324v-.078h-.16v-.082h-.164c0-.164-.082-.406-.082-.488h-.648zm0 5.867v-2.121l.543.156c0 .668-.25 1.508-.25 2.008-.086 0-.187-.02-.293-.043m1.941 21.547v10.277c-.203.223-.379.426-.379.457-.07 0-.496.285-.566.285l.566 4.59.379-.434v3.324c-.719.652-1.332 1.43-1.863 2.293l1.863.578v3.566c-.672.039-1.434.074-1.941-.066v-10.73l.105.012-.105-.582v-13.844c.625.148 1.34.145 1.914.277zm0-3.113v1.699c-.84-.203-1.617-.43-1.941-.633v-1.871h.227v.129c.613.387 1.176.59 1.715.676m0-3.902v1.781c-.078-.062-.18-.113-.227-.113l-.082-.086v-.168c-.086 0-.25-.332-.254-.418-.316 0-.871-.289-1.379-.426v-.535c.113-.074.207-.145.207-.211.336 0 1.125.152 1.734.176m0-8.473v1.359c-.395.031-.773.074-1.016.195v.141h-.277l-.422.418c0 .281.141.836.141 1.117.465 0 1.008.172 1.574.387v2.125h-1.941v-5.285c.691-.129 1.375-.289 1.941-.457m0-3.207v.996a6.28 6.28 0 0 0-.562-.035c-.082-.086-.168-.172-.332-.172l-.004-.586c.086-.082.168-.168.168-.25.254 0 .422-.168.59-.336-.086.336 0 .168 0 .336zm0-5.883v2.852c-.203-.273-.457-.582-.457-.582 0-.277-.141-1.535 0-1.816h.141v-.277l.277-.141zm0 52.605l-1.941-.34v-2.172l1.941.41zm-1.941-71.309l.195-.121a18.2 18.2 0 0 1 1.746-.973v3.945c-.914.754-1.57 1.645-1.941 2.695zm1.941 25.582v-.996l.109.035v.086c.336.25.5.418.5.922-.172 0-.395-.023-.609-.047m0 7.953v-2.125c.965.371 2.016.871 2.895.871 0 .277 0 .836-.281.977v.277zm0 4.512v-1.781c.301.012.559-.008.695-.09v-.086c.336-.168 1.172-.082 1.59-.082.418.418.25.836.25 1.34l-.5.418c-.086 0-.168 0-.168.082h-.336c-.082.168-.168.168-.25.25-.336 0-.836.086-1.172.086 0-.039-.047-.09-.109-.137m3.848 30.449c-.586-.039-1.16-.062-1.699-.062v.203c.066 0 .406.203.406.203l.199.066v.066h.137v.07h.199v.066c.168.129.438.211.758.273zm0-2.949v2.508l-1.496-.227c-.137 0-.945-.406-.945-.539h-.609c0 .27-.133.402-.066.672.066 0 .203.066.27.066v.137c-.258 0-.613.027-1 .055v-3.566l2.297.715zm0-11.488v5.777c-1.562.336-2.816 1.016-3.848 1.945v-3.324zm0-4.57l-.062-.059v-.145a.32.32 0 0 1-.211-.211c-.07 0-.281-.211-.281-.211v-.07c-1.555-1.273-.637-3.32-1.695-4.871-.141-.004-.918-.496-.988-.566h-.281c0-.129-.23-.082-.328-.074v10.277c.262-.289.57-.602.609-.602h.141c.07 0 .211-.211.352-.281 0-.141.285-.281.355-.281 0-.074.211-.215.281-.215l.07-.07.074-.07c0-.422.141-1.129.141-1.551l.141-.074c0-.141.07 0 .07-.141l1.613.066zm0-3.527v2.32c-.766-.164-.766-1.566-.766-2.031l.07-.07c.07 0 .141-.07.141-.141.086 0 .328-.055.555-.078m0-6.273v2.961c-.406-.043-.758-.102-1.023-.176-.273-.066-1.613-.312-2.824-.605v-1.699c1.332.211 2.504-.289 3.848-.48m0-1.262v.676l-.641.004c0-.168-.086-.086-.168-.086v-.082h-.168v-.504h.082v-.168c.086 0 .504-.332.504-.332-.418.082-.336.082-.25.082 0 0 .496.355.641.41m0-4.344v.402l-.059.016v-.418zm0-5.047c-.137.152-.227.359-.391.359v1.172l.164-.168.227-.004zm0-2.789v1.352c-.293.129-.566.293-.816.496v.137c-.137.141-.836.281-.977.422h-.277v.137h-.418v.141c-.316.16-.852.184-1.359.223v-1.359l.379-.117c.699-.281 2.934-.699 3.211-1.398.086 0 .172-.012.258-.031m0-18.914v12.848h-.027c0-.152-.711-.102-.863-.102 0 .203.102.457.102.613.051 0 .152.051.152.098.051 0 .102.055.152.105.051 0 .203.051.254.051l.23.043v2.918h-1.094c0-.281-.277-.141-.418-.141v-.141h-.281l-.141-.141c0-.277-.555-.277-.555-.695-.141 0-.422-.281-.562-.281 0-.141-.418-.418-.418-.418l-.137-.141c0-.055-.109-.219-.242-.395v-2.852l.102-.102v-.281l.141-.141c.277 0 .695-.277.836-.559h.281c0-.277.277-.418.418-.418v-.141c1.254-1.113.977-3.766 1.023-5.566-.039-1.629.328-3.008 1.047-4.164m0 64.656l-3.848-.68v-2.102l3.848.813zm-3.848-73.082c1.227-.602 2.516-1.062 3.848-1.414v3.383c-1.562.508-2.855 1.16-3.848 1.977zm3.848 40.195v-.676c.012.004.02.008.027.008v.668zm0 11.238v-.852l.008.008h.141v.852zm1.09 18.258v.914c-.379-.035-.762-.07-1.09-.129v-.887c.359.027.73.059 1.09.102m0-2.926v2.551l-1.09-.168v-2.508zm0-12.859v2.641c-.305.426-.512.902-.512 1.48.051-.102-.051-.152.051-.152v-.102l.051-.047.199-.051v-.051h.102v-.051h.102v-.051h.008v3.234a10.25 10.25 0 0 0-1.09.172v-5.777zm0-6.379v2.43c-.426-.148-.941-.387-.941-.566a.62.62 0 0 1-.148-.016v-2.32c.145-.016.281-.023.363.008v.07s0-.07.563.211zm0-6.992v3.281c-.387-.012-.758-.039-1.09-.074v-2.961a7 7 0 0 1 .918-.066c0-.078.098-.109.172-.18m0-5.75v.773l-.812-.051-.277.07v-.402h.027v-.168l.332-.336c.234 0 .488.055.73.113m0-5.312v1.996l-1.09.02v-1.359c.074-.078.16-.145.277-.145 0-.18.484-.363.813-.512m0-2.906v1.789a4.98 4.98 0 0 0-1.09.336v-1.352c.383-.094.758-.387 1.09-.773m0-19.492v10.465c-.074-.012-.148-.027-.203-.027l-.102.152h-.051c-.051.051-.254.457-.254.508-.051 0-.355.309-.406.359 0 .203.051.406.051.609.102.102.305.051.508.051.082-.082.266-.105.457-.109v3.234a.41.41 0 0 0-.09.027v.141h-.281l-.137.141-.141.141v.277h-.141c-.137.281 0 1.398-.137 1.816l-.141.141h-.023v-2.918l.023.008.102-.102h.102c0-.105.102-.105.102-.152.051 0 .102 0 .102-.051h.152c0-.102.203-.102.203-.203.102 0 0-.051.102-.051v-.359c-.051 0-.355-.098-.508-.098l-.152.152-.102.047h-.125v-12.848c.301-.488.664-.941 1.09-1.352m0 66.199l-1.09-.191v-1.969l1.09.23zm-1.09-74.687a20.12 20.12 0 0 1 1.09-.262v3.324c-.375.098-.738.207-1.09.32zm1.09 36.973v-.773c.285.066.555.141.777.141v.5c-.082 0-.168.082-.168.168zm1.887 34.438v.914a4.99 4.99 0 0 1-.359-.098c-.355-.121-.934-.16-1.527-.207v-.914c.652.078 1.293.18 1.887.305m0-3.016v2.621l-1.887-.285v-2.551zm0-10.078v1.57c-.395-.012-.91-.047-.992.305l-.051-.051v.352l.051.051.992.035v1.551c-.672-.031-1.297-.016-1.887.043v-3.234h.09v-.047c.387-.301 1.113-.437 1.797-.574m0-7.262v5.059c-.613.602-1.387 1.156-1.887 1.848v-2.641l1.602-1.832c0-.211.074-1.199-.281-1.199a.32.32 0 0 0-.211-.211c0-.07-.215-.285-.281-.285l-.145-.211-.141-.07c-.078 0-.293-.059-.543-.141v-2.43zm0-4.621v1.492c-.262-.094-.52-.199-.52-.371-.086 0-.254-.086-.254-.168-.336 0-.336-.418-.754-.418.086-.25.168-.168.25-.168V138c.168-.086.672-.004.84-.086v-.082c.063-.043.223-.082.438-.117m0-8.922v7.699c-.621.039-1.273.043-1.887.02v-3.281c.051-.047.09-.109.09-.211.258-.129.648-.648.906-.906 0-.906.258-2.203.258-2.98.133 0 .391-.129.391-.129v-.133a.56.56 0 0 0 .242-.078m0-6.652v1.996l-1.887.027v-1.996c.125-.059.23-.109.277-.156.523 0 1.086.082 1.609.129m0-5.422v4.16c-.641.008-1.285.051-1.887.172v-1.789c.676-.781 1.168-1.934 1.168-2.543zm0-18.336v6.23c-.211.051-.41.145-.613.309l.102-.102c-.051 0-.102.051-.152.051l-.051.051v.355a.11.11 0 0 1 .102.102c.184 0 .395.078.613.125v9.559l-.02-.02c-.387 0-1.473-.117-1.867-.031v-3.234c.168-.004.34.008.461.008l.051-.051v-.051h.047l.051-.051c0-.102-.051-.559 0-.664h.055v-.102h.102c0-.148.254-.254.254-.402-.152 0-.812.098-.812-.207-.055 0-.129-.012-.207-.023V99.77c.539-.52 1.168-.98 1.887-1.387m0 67.918l-1.887-.332v-1.93l1.887.398zm-1.887-75.281c.621-.133 1.25-.246 1.887-.336v3.242c-.66.121-1.289.262-1.887.418zm1.887 33.117v-1.996c.227.023.445.039.648.039.168.168.504.336.672.418 0 .168.418.586.5.672v.836zm2.387 39.008v.52c-.793.047-1.547.145-2.387-.059v-.914c.199.043.398.09.59.141.141 0 1.191.168 1.797.313m0-3.191v2.711l-2.387-.367v-2.621zm0-8.598v5.34l-2.105-3.27c-.094-.008-.191-.012-.281-.016v-1.551l.406.016.051-.051v-.051l.051-.051h1.25l.055-.047v-.102l.047-.051.051-.051c.102 0 .152-.051.199-.102a2.12 2.12 0 0 0 .277-.016m0-3.734v2.363c-.27.238-.551.48-.879.586-.199.051-.699 0-.852.152v.051c-.098.098-.297.199-.398.297h-.051l-.051.102c-.047 0-.102 0-.156-.004v-1.57c.461-.094.906-.187 1.211-.328a2.08 2.08 0 0 0 1.176-1.648m0-4.934v4.602a1.51 1.51 0 0 0-.125-.477c-.152-.348-.199-.75-.301-1.102 0-.098-.051-.199-.051-.301h-.199l-.051.051c0 .102-.148.102-.152.199-.297.152-.797.902-1 1.152a4.67 4.67 0 0 1-.508.582v-5.059l.652.73 1.016-.926zm0-4.797v2.313c-.48-.102-.887-.266-1.152-.531-.25 0-.5-.168-.75-.168 0-.121-.242-.203-.484-.297v-1.492c.66-.113 1.82-.18 2.074-.051v.082a1.53 1.53 0 0 0 .313.145m0-10.742v2.711c-.59.234-1.184.516-1.852.828v.262h-.129v.645h.129v.391l.262.129c0 .262.258.258.258.258v.133c.129 0 .387.258.52.387h.258c0 .109.359.305.555.371v2.789c-.504.238-1.402.383-2.387.441v-7.699c.082-.051.148-.113.148-.18.129 0 .516-.129.516-.129v-.129s.258 0 .258-.262c.352 0 1.125-.633 1.465-.945m0-8.496c-.289.09-.578.16-.875.16 0-.141-.137-.699-.277-.699v-.281c-.277 0-.277-.559-.699-.559a.3.3 0 0 0-.277-.277c0-.277-.141 0-.141-.277h-.117v4.16c.762-.008 1.52.023 2.211.023 0 .047.07.121.176.199zm0-11.797v2.707c-.035-.012-.055-.023-.055-.027-.078 0-.191-.039-.27-.039-.152-.152-.379-.074-.57 0 0 .039-.039.117-.078.117 0 .074-.039.344.117.344.273 0 .551.117.855.184v7.086c-.184-.008-.344-.035-.453-.09v-.141h-.281l-.277-.277c0-.141-.141-.281-.141-.422-.137 0-1.039-1.027-1.234-1.234v-9.559a1.36 1.36 0 0 0 .25.027c.102.102.254.254.305.355.102 0 .512.102.66.051v-.051h.258c0 .082.605.672.914.969m0-9.535v7.945c-.242-.168-.473-.293-.664-.293 0-.102-.051 0-.051-.102-.098 0-.406-.254-.457-.305-.453 0-.848-.043-1.215.047v-6.23c.711-.406 1.508-.758 2.387-1.062m0 69.402l-2.387-.422v-1.863l2.387.504zm-2.387-76.039a31.41 31.41 0 0 1 2.387-.254v3.137c-.84.098-1.633.219-2.387.359zm2.387 45.367v-2.789c.035.012.07.02.094.02 0 .129.391.52.52.52 0 .387.129 1.035.129 1.555l-.258.129c0 .129-.262.52-.391.52l-.094.047m0 27.613v-.52c.254.063.43.117.43.16h.133l.066.066v.27a8.38 8.38 0 0 0-.629.023m2.93-3.375v.922c-.109-.008-.203-.023-.25-.043-.055 0-.742-.051-.797 0v.055h-.105c0 .105-.051 0-.105.16.406 0 .832.129 1.258.27v1.477l-1.824-.297-1.105-.168v-2.711zm0-9.785v1.988l-1.152-.551-.555 6.66-1.223-1.906v-5.34c.625-.082.992-.449 1.477-.934.449 0 .996 0 1.453.082m0-8.652v8.176c-.234-.102-.434-.23-.551-.406-.098 0-.152-.051-.199-.051 0-.051-.203-.152-.25-.203h-.102l-.102-.098h-.898c0 .051-.152.148-.152.199-.227.117-.449.313-.676.516v-2.363a1.57 1.57 0 0 0 0-.332v-4.602l1.961 1.488-.832-2.586zm0-3.469v1.93c-.969.043-2.07.07-2.93-.109v-2.312c.797.289 2.035.254 2.93.492m0-10.844v1.625c-1.145.09-2.035.34-2.93.695v-2.711a1.83 1.83 0 0 1 .094-.09c.52 0 1.426 0 1.941.129l.895.352m0-20.766v4.375l-.234.129h.051c0 .051.102.152.148.152 0 .063.023.047.035.051v10.957c-.754-.223-1.469-.418-1.988-.418 0-.137-.281-.418-.281-.555-.094 0-.445-.195-.66-.363v-2.449c.535-.164 1.047-.398 1.5-.398 0-.141.418-.422.559-.422l.277-.277v-.559c-.445 0-1.605.266-2.336.23v-7.086c.117.027.238.043.363.043l.039-.039c0-.074.113-.113.113-.187.117 0 .348-.117.461-.117v-.074a6.43 6.43 0 0 1-.977-.203v-2.707l.152.148h.102c.559.559 1.828 0 2.441 0 0-.051.152-.152.199-.152 0-.039.016-.062.035-.078m0-10.238v4.98c-.445-.051-.906-.09-1.27.172-.148.09-.09.508-.121.598.031.031.18.148.18.18.09.031.211.121.328.121 0 .059.301.09.328.09l.031.027c0 .059.207.152.238.18a.4.4 0 0 1 .152.059l.133.004v3.27c-.145-.055-.309-.176-.387-.176-.406-.102-.969.102-1.375 0-.32-.098-.758-.492-1.168-.773V97.32c.895-.309 1.875-.566 2.93-.785m0 70.707l-2.93-.52v-1.781l2.93.621zm-2.93-76.812a42.53 42.53 0 0 1 2.93-.109v3c-1.02.059-2 .141-2.93.246zm2.93 49.883v-1.93c.125.035.246.07.355.117.336.086 1.004.754 1.34.754 0 .25-.082.586-.082.836l-.09.086-.082.082c-.395 0-.898.027-1.441.055m2.992 22.242c-.469-.039-.926-.121-1.234-.273-.051 0-.156-.055-.156-.105h-.105c0-.105-.16-.16-.16-.211-.414 0-.871-.16-1.336-.312v1.477l2.992.484zm0-1.922v.957c-.195-.008-.598-.023-.598.109h-.422c-.055-.055-.371-.211-.371-.316h-.16c-.086-.172-.965-.137-1.441-.172v-.922zm0-9.578v2.859l-2.992-1.422v-1.988c.105.016.207.039.301.066.203.051.602.453.801.453 0 .398 1.055.551 1.355.551v-.602h-.051c-.457-.574-1.645-.621-2.406-.945v-8.176l1.992.289.738 1.664-.551 1.758-.371 2.219v1.664zm0-13.711v1.117l-.125-.125v-.906zm0-8.828v1.5l-.902-.367c-.129 0-.648-.258-.906-.258l-.262-.258c-.324 0-.629.012-.922.031v-1.625c.977.375 1.977.715 2.992.977m0-16.777v11.398c-.812-.012-1.945-.387-2.992-.699V111.48c.012 0 .02.012.02.051h.102v.051c.508.406 2.031.305 2.695.305a1.59 1.59 0 0 1 .176-.148m0-15.672v9.145c-.203.02-.402.031-.586.031l-.031.063v.566h.031v.059l.027.031c.133 0 .348-.008.559.016v2.754l-.074.004-.051.102c-.613.457-2.594 1.168-2.594 2.188-.078.023-.176.074-.273.125v-4.375c.031-.023.066-.023.066-.023v-.051l.156-.051v-.254l-.102-.051v-.102a.38.38 0 0 1-.121-.027v-3.27l1.242.027c.566-.566-.629-1.047-.629-1.402-.195-.004-.398-.031-.613-.055v-4.98a35.14 35.14 0 0 1 2.992-.469m0 71.703l-2.992-.527v-1.68l2.992.633zm-2.992-77.449c.988-.004 1.984.023 2.992.066v2.832c-1.031.012-2.031.047-2.992.102zm2.992 63.594v-2.859l3.254 4.406zm3.656 7.137v2.844c-.992-.141-2.137-.008-3.074-.184l-.582-.098v-1.059c.5.043 1.008.043 1.359.043 0 .16.531.371.531.531.316.105.688.105 1.059.105 0-.16.055-.426.055-.637l-.055-.051-.105-.055h-.105l-.105-.105c-.797 0-1.379-.371-2.066-.371-.051-.051-.316-.211-.316-.316-.055 0-.105-.055-.16-.105l-.09-.004v-.957zm0-32.02v2.207l-.152-.031c-1.016-.203-2.348-.727-3.504-1.191v-1.5c1.199.309 2.426.504 3.656.516m0 39.383l-3.656-.645v-1.574l3.656.773zm0-28.516c-.609-.055-1.227-.148-1.84-.152-.066.195-.133.715-.203.91l2.043.309v1.047l-1.059-.176c0-.129-1.684-1.035-1.684-1.035v-1.816l-.133-.129-.129-.129h-.258v-.133h-.262l-.125-.129-.008-.004v-1.117l.266-.172v-.133c.129 0 .387-.129.387-.258.129 0 .52-.129.648-.129v-.133h.906c.133-.129 1.168-.516 1.43-.516v-.52l-.133-.129c-.391 0-.906-.391-1.297-.391 0-.777-1.812-1.812-1.812-3.109 1.02 0 2.141.219 3.262.57zm0-20.637c-2.281.547-1.562 1.426-.402 2.355l.402.105v2.77c-.957.035-1.859-.008-2.496-.238-.277-.141-1.113-.699-1.113-1.117h-.047v-11.398c.105-.078.223-.156.281-.156 0-.305.102-.812.102-1.172.051-.051.148-.203.148-.254l2.598.152c0-.051.051-.051.102-.051v-.305c-.102-.102-.406-.711-.406-.863-.105 0 0-.051-.105-.051a.75.75 0 0 0-.254-.305c-.734-.395-1.711-.027-2.465-.004v-2.754c.266.023.523.086.609.254.504 0 .836.148 1.344.031 0-.062.121-.121.148-.152 0-.328 0-.625-.18-.895-.059-.09-.238-.059-.328-.148-.516 0-1.074.09-1.594.145v-9.145c1.156-.137 2.375-.234 3.656-.297v4.141c-.875-.164-1.773-.211-2.332-.211 0 .082-.086.168-.168.168v.422l.082-.254c.844 1.012.172 1.094.172 2.273.668 0 1.453.117 2.246.227v13.156c-.066-.051-.117-.09-.117-.105-.215 0-.758-.055-.918.055v.055h-.109v.055l-.105-.164c-.109.922.434 1.406.973 1.949 0 .141.16.242.277.266zm-3.656-28.875a98.41 98.41 0 0 1 3.656.242v2.613c-1.262-.031-2.48-.039-3.656-.023zm7.473 69.82v2.875c-.371.129-.684.512-.684.895l-.133.07c0 .066-.066.27-.137.27-.742.473-1.754-.203-2.43-.34-.141-.035-.285-.059-.434-.082v-2.844l2.832.324zm0-31.77l-.168.004a10.7 10.7 0 0 1-3.648.59v2.207c.891.195 3.738.941 3.738 1.914h.078zm0-3.594v1.66c-1.406-.191-2.828-.293-3.797-.293v-.281h.277v-.141c.559-.277 1.953-.559 2.793-.559 0 0 .484-.289.727-.387m0 44.246l-3.816-.676v-1.445l3.742.789h.074zm-3.816-28.125l3.816.578v1.094l-3.816-.625zm3.816-3.437c-.848.34-1.48 1.043-1.684 2.172-.684.277-1.402.27-2.133.199v-7.473c1.332.41 2.664 1.004 3.816 1.613zm-3.816-15.805l3.816 1.078v1.48l-.031-.027c-.98 0-2.437.191-3.785.238zm3.816-3.48l-3.477.945c-.121.023-.234.047-.34.074v-1.461c.016.004.031.004.047.004 0 .164.758.164.922.164 0-.055.16-.219.16-.273.055 0 .109-.051.109-.051h.105l.109-.109c0-.219.109-.648 0-.867-.16-.324-.863-.434-.973-.703-.039 0-.32-.16-.48-.273v-13.156c.703.102 1.41.191 2.043.191 0-.336.59-1.008.422-1.512-.281-.707-1.355-1.098-2.465-1.305V95.77a79.4 79.4 0 0 1 3.816-.094v3.688h-.172c0 .168-.086 0 .168-.086h-.504c0 .168-.168.504-.168.672.195 0 .426.039.676.09v4.09c-.348-.008-.648.012-.793.094v.055c-.055 0-.164-.055-.055-.055.055.109.434.648.434.813.105 0 0 .055.105.055 0 .105.109.105.109.105v.055c.039.039.129.051.199.055v3.879c-.316-.059-.617-.152-.84-.375h-.078v-.039h-.191c.305.574.496 1.035.496 1.684h.152c0-.23.383-.535.383-.687h.078zm-3.816-27.613l3.816.359v2.414a135.39 135.39 0 0 0-3.816-.16zm5.832 11.426v1.734h-.102c0 .055-.164.164-.164.164v.055h-.055v.051h-.055v.055h-.051v.055l-.055.055c-.301 0-.977-.082-1.535-.094v-4.09c.598.121 1.285.332 1.762.332 0 .422 0 .844-.336 1.18 0 .168-.082.336-.082.504zm0-6.367v3.836c-.656-.121-1.336-.156-2.016-.16v-3.687l2.016.012m0 73.754l-2.016-.352v-1.332c.445-.02.887-.203 1.207-.203 0-.066.07-.133.137-.133.402-.676-.066-1.215-.609-1.488 0-.199-.066-.402-.066-.605.066 0 .133-.066.133-.137.07 0 .406-.133.406-.199h.137c0-.812-.473-1.418-1.082-1.891v-.066a.74.74 0 0 0-.262.047v-2.875l2.016-2.406v2.668c-.18.305-.312.637-.355 1.012l.164-.055.055-.055v-.055l.055-.055h.082zm-2.016-27.898l2.016.305v1.117l-2.016-.328zm2.016-4.23c-.73-.086-1.426-.023-2.016.215v-3.488a23.3 23.3 0 0 1 .957.539v.129h.91l-.262-.129v-.133h-.129v-.129l-1.297-1.164h-.18v-4.715l2.016-.051zm-2.016-14.512l2.016.641v3.402c-.633-.133-1.324-.246-2.016-.34v-1.66a.34.34 0 0 1 .109-.031v-.418l-.109-.113zm2.016-4.977a7.36 7.36 0 0 1-.418-.012l-1.598.43v-8.477c.332-.012.75-.078 1.105-.078v-.266c-.312-.148-.719-.168-1.105-.238v-3.879h.074v.055c.617.383 1.367-.078 1.941-.191v7.695l-.59.02v.105l.055.055h.055l.055-.055c0 .055.051.215.051.273.055.051.164.16.164.215.055 0 .105.109.16.109.012.023.031.047.051.074v1.848c-.227.051-.426.152-.426.297-.109 0-.273.051-.434.051 0 .164.051.273.051.434l-.105.055h.105v.109h.109c0 .063.359.129.699.168zm-2.016-26.836l.43.043 1.586.164v2.332l-2.016-.125zm3.441 65.113l-1.426 1.699v2.668c.387-.66 1-1.199 1.426-1.812zm0-41.508v1.051a.13.13 0 0 1-.012-.059h-.812c0-.117-.32-.141-.602-.078v-1.848c.07.098.18.207.219.25h.059v.055l.055.051c.051 0 .105.055.105.109.055 0 .324.219.379.219a2.6 2.6 0 0 0 .609.25m0-12.539v10.816c-.473-.039-1-.023-1.426-.008v-7.695a1.13 1.13 0 0 1 .219-.023l.059-.109h.105v-.055c.055 0 .219-.055.27-.055v-.109c.055 0 .164-.105.164-.105l.055-.055v-.488l-.109-.055c0-.105-.219-.215-.324-.215l-.105-.109h-.332v-1.734zm0-6.336v4.262a5.73 5.73 0 0 0-1.426-.457v-3.836l1.426.031m0 71.789l-1.363 1.949-.062-.016v-8.18h.027l.055-.055c0-.055.055-.109.055-.164.109 0 .277-.219.328-.273 0-.055.164-.273.164-.328h.059s.055-.168.055-.223c.152 0 .543-.664.684-.844v2.129c-.402.328-.758.793-.848 1.297l-.055.051c.211-.211.629-.629.902-.754zm-1.426-25.66l1.426.219v1.129l-1.426-.23zm1.426-4.184a6.44 6.44 0 0 0-1.426-.352v-8.926l1.426-.039zm-1.426-14.223a50.95 50.95 0 0 1 1.426.5v3.277c-.41-.137-.898-.262-1.426-.375zm1.426-5.77a6.67 6.67 0 0 1-1.426.152v-1.203c.234.031.457.047.543.047 0 .055.109.109.164.109v.109h.379v-.055l.34-.137zm-1.426-26.477l1.426.141v2.297l-1.426-.105zm2.113 67.215c-.07.109-.137.219-.219.219-.059.164-.277.438-.441.605v.109c-.008.008-.016.016-.027.031v2.129c.082-.07.164-.129.246-.187.035-.172.246-.699.441-1.078zm0-3.129v2.637c0 .105-.219.164-.277.219v.055l-.164.055c-.07.141-.152.277-.246.41v-2.555zm0-53.227v10.934c-.203-.059-.437-.094-.687-.117v-10.816zm0-6.312v4.641a4.71 4.71 0 0 0-.687-.402v-4.262zm0 70.785l-.687.98v-5.41l.027-.012c0-.238.316-.645.66-1.008v1.801c-.094.129-.172.266-.219.414h.164v-.055c.008 0 .027-.008.055-.02zm-.687-24.461l.688.105v1.137l-.687-.113zm.688-4.043c-.066-.051-.129-.105-.195-.16a5.4 5.4 0 0 0-.492-.199v-9.316l.688-.02v1.68c-.031.008-.062.012-.086.012 0 .148-.074 0-.074.148h-.223a2.49 2.49 0 0 0 .383.266zm-.687-14.082l.688.254v3.195c-.164-.035-.324-.066-.391-.066a8.43 8.43 0 0 0-.297-.105zm.688-6.453a7.14 7.14 0 0 1-.687.184v-.977l.199-.082v-.051l.273-.219v-.215h-.055v-.164c-.051 0-.109-.055-.16-.055 0-.105-.109-.16-.164-.16v-.055s-.062 0-.094-.051v-1.051c.223.063.449.102.688.121zm-.687-26.152l.688.07v2.281l-.687-.055zm2.664 67.738c-.312.391-.789.766-.937 1.094-.051 0-.273.105-.273.219-.152.102-.469.379-.766.691v1.801c.219-.309.52-.578.711-.848h.055c.273-.309.84-.832 1.211-1.328zm0-6.148v5.59c-.305.105-.613.332-.824.332 0 .164-.387.66-.496.715h-.109l-.055.109c-.055 0-.219.055-.219.164-.059.02-.164.188-.273.402v-1.828c.066-.109.137-.219.219-.219v-.328h-.164l-.055.055v-2.637zm0 10.777l-1.977 2.824v-3.309c.109-.055.34-.203.383-.203l.055-.051c0-.055.055-.113.109-.113.258-.559.953-.914 1.43-1.359zm-1.977-21.531l1.977.297v1.164l-1.977-.324zm1.977-3.059c-.617-.145-1.254-.516-1.977-1.09v-7.59c.344.199.691.32.965.484v.074c.23.156.598.223 1.012.242zm-1.977-14.918c.668.254 1.328.523 1.977.805v4.914c-.48-.168-.965-.238-1.465-.047-.125 0-.352.105-.512.141v-1.68l1.008-.023v-.422l-.281-.277h-.277v-.141c-.074 0-.27-.039-.449-.074zm1.977-7.703c-.637.441-1.297.773-1.977.996v-2.773c.641.059 1.324.008 1.949.008v-.598c-.27 0-.484-.379-.758-.379 0-.215-.539-.27-.648-.434-.113-.148-.305-.25-.543-.324v-10.934h.242c.086-.086.168-.168.254-.168 0-.086.082-.168.082-.168v-.84a4.53 4.53 0 0 0-.578-.496v-4.641l1.977.078zm-1.977-25.086l1.977.199v2.25l-1.977-.168zm4 69.398l-2.023 2.898v-2.211a1.71 1.71 0 0 0 .324-.395c.113-.273.879-1.59 1.211-1.59v-.109c-.223 0-.441.164-.66.164l-.055.109h-.109c0 .109-.109.219-.219.219 0 .055-.113.219-.168.219-.047.18-.168.387-.324.594v-1.629c.156-.199.27-.402.27-.609a.84.84 0 0 0-.27.051v-5.59l2.023-2.414zm-2.023-18.336l2.023.309v1.188l-2.023-.332zm2.023-3.707c-.711.402-1.355.512-2.023.352v-7.879c.672.031 1.469-.059 2.023-.086v3.961c-.496-.129-.988-.191-1.387-.219.074.074.301.523.449.523 0 .074.523.75.746.75.027.051.094.109.191.18zM127.168 125a35.54 35.54 0 0 1 2.023.957v4.777c-.652-.129-1.328-.578-2.023-.82zm2.023-10.273l-.297.23a10.55 10.55 0 0 1-1.727 1.535V95.82l2.023.105v7.113c-.371-.145-.762-.266-1.148-.227 0 .25-.086.336 0 .422h.082l.086.082v2.105c.215 0 .609.18.98.234v1.625c-.102-.02-.168-.043-.187-.078l-1.117-.027-.051.055c0 .027 0 .16.078.133-.027.238.453.902.719.902l.055.055h.266c.027-.027.133-.133.16-.133 0-.055.027 0 .027-.078h.051zm-2.023-23.121l2.023.203v2.242l-2.023-.195zm3.52 4.41v7.664a1.03 1.03 0 0 1-.289-.277c-.363 0-.773-.195-1.207-.363v-7.113l1.496.09m0 62.648l-1.496 2.141v-10.293l1.496-1.785zm-1.496-15.887l1.496.227v1.203l-1.496-.242zm1.496-4.703a6.42 6.42 0 0 0-.328-.164c-.414.363-.801.648-1.168.852v-2.418c.332.242 1.012.566 1.496.742zm-1.496-12.117a29.03 29.03 0 0 1 1.496.816v9.031c-.445-.34-.977-.555-1.496-.695v-3.961l.262-.008.074-.074v-.301c-.113 0-.223-.012-.336-.031zm1.496-12.051c-.5.176-1 .449-1.496.82v-6.617c.277.02.551.184.824.184 0-.16.188-.344.188-.477.211 0 .344-.293.344-.48-.187 0-.984.016-1.355-.055v-1.625c.066.012.133.016.195.016l.59-.586h.711zm-1.496-22.098l1.496.152v2.242l-1.496-.152zm1.496 51.195l3.078.465.082.043v3.371c-.02.004-.031.008-.047.008 0 .164-.766.766-.875.766 0 .109-.223.441-.273.551-.055 0-.328.328-.328.328-.496.223-.223 1.262-.223 1.645l.109.109h.113c0 .055.055.113.105.113l.059.109h.109v.055h.105v.055l.113-.055c0-.277.438-.77.656-.879a2.16 2.16 0 0 1 .375-.137v2.602c-.383.316-.867.637-.867.938-.551.383-.441 1.098-.879 1.535v.328c.109 0 .383 0 .496-.055.453-.238.867-.656 1.25-1.133v.383l-3.16 4.516v-9.937l1.875-2.238-.371-2.035-1.504-.246zm0-16.23c1.109.648 2.168 1.363 3.16 2.164v11.469c-1.09-.91-2.18-1.797-3.16-2.332v-.988c.215.078.391.125.488.125 0 .148 1.195 1.051 1.422 1.051 0 .148.074 0 .074.148.074 0 .152.074.227.148.223 0 .449.078.676.078 0-.527-1.426-2.023-2.027-2.023 0-.078-.148-.152-.223-.152-.18-.258-.395-.477-.637-.656zm3.16-12.668c-1.055-.504-2.105-.57-3.16-.199v-8.82h1.309l.082-.086v-.758c-.391-.195-.984-.289-1.391-.562v-7.664l3.16.223v15.531c-.051-.051-.102-.09-.16-.094-.156-.027-.852-.055-.93.105-.293 0-.453-.215-.719-.215 0 0-.055.105-.055.133v-.027.027s.109.105.109.133c.023 0 .051.027.051.055.082 0 .109.078.137.105h.023l.023.055h.059l.023.051c.242.082.48.188.773.242.254.043.457.27.664.387zm-3.16-22.145l3.16.316v2.273l-3.16-.348zm7.535 4.641v5.117c-.16.059-.324.113-.504.168-.422.086-.672.25-1.094.59l.168-.086v.086l.086.082.082.086h.168c0 .168.086 0 .086.168.34 0 .676-.016 1.008-.039v9.246c-.328-.082-.695-.105-.887-.105v.027c-.59.398-1.148.316-1.84.211-.422-.055-.93 0-1.328-.105-.129-.02-.219-.176-.32-.277V96.238l4.375.363m-4.375 46.91c2.598 1.395 3.738 3.121 3.887 5.078l-3.887 5.559v-.383c.586-.73 1.102-1.594 1.602-2.156l.055-.004c0-.164.273-.328.273-.437.328-.164.492-.875.383-1.207-.105 0-.492.055-.492.219-.055 0-.164.113-.219.113l-.219.219v.492c-.219.164-.715.551-.934.551 0 .191-.203.395-.449.598v-2.602c.531-.164 1.383-.395 1.383-.687.383 0 .438-1.754.438-2.082-.328-.332-.824-.223-1.262-.223l-.055.113h-.109v.055c-.055 0-.219.055-.273.055 0 .039-.066.082-.121.102zm0-14.574l.227.184c1.457.656 2.84 1.363 4.148 2.113v2.836c-.617-.477-1.355-.984-1.727-.754v.074h-.527l-.074.074v.301c.152 0 .227.148.375.148l.074.074c0 .074.227.227.375.227.359.355 1.051.574 1.504.949v8.293c-1.234-.387-2.805-1.738-4.375-3.051zm4.375-14.746c-1.453.199-2.906.172-4.359-.078l-.016-.008v-1.379c.051.031.105.055.16.063.508.109 1.195-.105 1.676.082.691.266 1.547-.027 2.289.027a.41.41 0 0 1 .105.078c.043 0 .09.016.145.035zm-4.375-21.914l4.375.441v2.367l-4.375-.535zm9.02 4.758v2.688c-.93.16-1.77.438-2.457.902-.773.492-1.371.809-2.187 1.094v-5.117l4.645.434m0 47.727v-1.547c-.922-.332-1.328.422-1.266 1.121zm-4.645-13.527c1.66.949 3.207 1.977 4.645 3.07v7.375c-.539-.121-1.355-.09-2.473.203-.375 1.551-1.156 1.887-2.172 1.574v-8.293c.117.098.219.203.293.324.602 0 1.203.676 1.949.676h0l-.074-.078c0-.074-.074-.148-.074-.223l-.074-.074c-.078 0-.152-.074-.152-.152-.148 0 0-.074-.148-.074l-.074-.223h-.078c-.148-.227-.445-.449-.672-.602-.172-.086-.512-.371-.895-.668zm4.645-18.457c-1.551.727-3.098 1.199-4.645 1.414v-1.18c.129.047.285.125.418.125.051-.105.211-.238.316-.348v-.184l-.055-.055c0-.277-.316-.437-.68-.531v-9.246c1.559-.117 3.074-.461 4.645-.656v6.469l-1.109-.387c-.336-.168-.93 0-1.262 0 0 .082-.086.168-.168.168v.168h-.168.754v1.008c.086 0 1.098 1.18 1.348 1.262a1.73 1.73 0 0 0 .605.234zm-4.645-20.059l4.645.469v2.516l-4.645-.617zm7.898 4.641v2.191c-1.117-.031-2.234 0-3.254.172v-2.687l3.254.324m-3.254 36.945c1.152.883 2.238 1.813 3.254 2.781v2.242c-.285-.184-.605-.363-.785-.543l-2.398.148c.449.301 1.723 1.875 1.723 2.625.078 0 .152.148.152.297.148.074.449.602.523.75.176.297.453.57.785.816v2.445l-3.254-1.105v-1.547c.043.016.086.031.133.055.902-.547.918-1.355-.133-1.59zm3.254-22.5l-2.746.723-.508.25v-1.738c.867.176 1.934-.148 2.676-.148.258-1.219-1.344-1.852-2.676-2.305v-6.469c.68-.086 1.375-.148 2.086-.148l.086-.164c.254 0 .797-.531 1.082-.898v4.969c-.285-.07-.566-.117-.832-.117l-.082-.086v-.336c-.336.168-.504.336-.672.508v.168c-.086 0-.086.168-.336.168-.086.168-.254.25-.336.336v.59c.699.219 1.469.313 2.258.344zm-3.254-18.617l3.254.328v2.645l-3.254-.457zm7.504 4.563v2.023c-1.254-.039-2.75-.18-4.25-.223v-2.191l2.668.273a50.12 50.12 0 0 0 1.582.117m-4.25 39.336c1.57 1.496 2.984 3.094 4.25 4.785v5.438l-4.25-1.441v-2.445c.934.684 2.301 1.133 3.188 1.133v-.227c-.453-.297-1.801-1.047-2.023-1.57-.375-.828 0-2.398-.676-3.074-.117-.117-.297-.238-.488-.355zm4.25-26.395l-4.25 1.113v-4.355c1.008.043 2.051-.008 3.043-.008l.082-.086v-.422c-.082-.082-.168-.168-.168-.25-.852 0-1.953-.559-2.957-.809v-4.969c.094-.117.16-.219.18-.281.926 0 2.609.758 3.449.254v-.086h.172c0-.168.082 0 .082-.168.074 0 .215-.066.367-.082v3.168c-.215-.008-.434-.008-.641-.008v.082c.043 0 .082.039.082.082l.328.039c.078.105.152.238.23.383v4.121c-.02.012-.035.02-.055.031v.035h-.07l-.035.035v.035h-.035v.035l-.035.035c-.07 0-.211.176-.211.211-.426 0-1.48-.035-1.867.105-.141.035-.566.316-.707.316l-.031.035-.039.035c0 .035-.07.211-.07.211v-.07.035c.07 0 0 .035.07.035v.07c.07 0 .109.07.145.07h.066c.035 0 .109.07.176.07 0 .07.109.07.141.07v.039c.18.102.742.172.953.176 0 .07.074-.004.074.07.102 0 .488.035.563.066v.035c.203.133.59.105.969.051zm-4.25-17.176l4.25.426v2.754l-.531.004-3.719-.539zm4.25 48.355c1.633 2.188 3.027 4.527 4.207 7.008l-3.723-1.406-.484-.164zm5.652-32.668l-5.652 1.488v-.441c.332-.051.664-.117.859-.117v-.035c.391-.109 1.129-.355 1.516-.355 0-.031.145-.07.176-.07 0-.035.039-.035.074-.035 0-.035.246-.141.316-.141l.211-.176v-.141h-.035v-.07l-.035-.035h-.07v-.035c-.035 0-.141 0-.141-.07-.105 0-.18-.07-.281-.07l-.039-.07c-.066 0-.246-.035-.246-.105h-.07l-.035-.035v-.035l-.035-.035c-.035 0-.211-.105-.211-.141-.512 0-1.418-.332-1.953-.066v-4.121c.285.527.621 1.164 1.359.719.039 0 .121-.125.121-.164.445 0 1.059-.121 1.547-.121v-.41c-.328-.242-.977-.121-1.344-.285-.508-.238-1.102-.301-1.684-.316v-3.168c.016-.004.035-.004.051-.004l.676-.168v-.254h-.086l-.082-.336c-.184 0-.367 0-.559-.008V97.75c1.816.102 3.715.113 5.652.09v2.699c-.305-.07-.598-.078-.777.043v.035c-.172 0-.383.07-.422.07.316.602.547.918 1.199.977zm-5.652-15.262l5.652.57v2.117l-5.652.066zm7.098 14.883l-1.445.379v-7.539c.078.008.16.012.246.012.352.176.637-.211.848-.211v-.07c.035 0 .105-.07.105-.07v-.285c-.195-.129-.719-.387-1.199-.5V97.84l1.445-.02v8.613c-.199-.004-.398.051-.598.176v.035h-.176c-.035.035-.176.102-.176.176-.07 0-.07.105-.07.176-.039.141.105.422.105.598.211.039.57.023.914-.023zm-1.445-14.312l1.445.145v1.953l-1.445.02zm7.254 12.789l-5.809 1.523v-1.254c.277-.043.547-.109.703-.187.074-.035.25-.246.32-.246v-.105h-.039v-.07h-.031c-.254-.32-.594-.523-.953-.527V97.82l5.809-.09v1.539c-.211-.016-.398-.008-.488.043v.039h-.07c-.07.07-.141.105-.246.211-.035.035.035.07-.035.07v.141h.07c.035.105.352.281.492.281l.07.07.207.086v3.586l-.031-.008c-.492-.105-1.832-.316-2.254.035v.035a1.67 1.67 0 0 0-.352.352h-.035l-.035.105h-.035c-.18.211-.105.637-.105.883l.035.035c.031 0 .07.035.105.035 0 .035.105.105.141.141h.105c.035.105.316.141.422.141.59.129 1.363.164 2.039.008zm-5.809-12.645l.16.016c1.902.125 3.781.215 5.648.258v1.613l-5.809.066zm5.809.273c8.203.188 16.051-.5 23.719-2.766 4.574-1.805 3.398 1.91.055 4.332-6.414 5.449-14.824 4.137-21.113 10.105l-2.66.699v-1.742c.445-.105.852-.297 1.133-.605l.879-.672c.074 0 .391-.105.391-.176h.066l.039-.07c.035-.035.105-.035.105-.105.07 0 0-.035.07-.035 0-.035.035-.141.176-.246-.07 0-.391.035-.391.105-.656 0-1.797.207-2.469.043v-3.586c.488.219 1.051.527 1.484.617 0 .07.035 0 .035.07 1.867 0 3.734.496 5.566.496 0 .035.074.07.105.07.035.035.07.141.141.141.074.105.32.281.32.352.316 0 .598.07.844-.105v-.035c.141-.105.813-.422.813-.562.492-.32 1.266-.391 1.652-.777.246 0 .496-.246.672-.281v-.211l-.07-.07c-.07 0-.281-.176-.355-.215v-.031c-.031-.035-.246-.18-.246-.246h-.316s-.105.105-.141.105l-.035.035c0 .105-.246.176-.246.281l-1.375.035c-.352 0-1.406-.141-1.656 0v.035c-.105.07-.352.105-.422.211-.141 0-.426-.035-.527 0-.355.105-1.586.281-1.797-.141h-.07v-.035c-.035 0-.211-.07-.246-.07-.848-.211-1.867.105-2.645-.18-.07 0-.316-.066-.316-.137-.035 0-.211-.074-.211-.074v-.031c-.156-.07-.594-.164-.957-.187V97.73c5.543-.016 11.117.316 16.012 2.344l1.863-1.277-5.008-.582 3.609-1.863-16.477.191"/><path id="n" d="M9.969 200.203c8.094-12.645 20.738-14.309 41.254-8.32 40.457 7.48 80.203 4.391 117.113-4.992 13.195-1.883 21.516 2 24.953 11.648l5.656-12.977c-7.402-24.027-25.711-22.336-45.582-16.969-30.832 9.176-66.762 11.34-111.789 1-15.809-2.145-30.004.125-36.93 16.633 1.109 5.324 4.215 8.652 5.324 13.977"/><path id="o" d="M9.969 200.203c8.094-12.645 20.738-14.309 41.254-8.32 40.457 7.48 80.203 4.391 117.113-4.992 13.195-1.883 21.516 2 24.953 11.648l5.656-12.977c-7.402-24.027-25.711-22.336-45.582-16.969-30.832 9.176-66.762 11.34-111.789 1-15.809-2.145-30.004.125-36.93 16.633 1.109 5.324 4.215 8.652 5.324 13.977zm0 0"/><path id="p" d="M10.641 180.59l1.336-.852 2.027 5.613.676 1.695c.215.387.473.641.781.762s.645.059 1.02-.18.621-.543.727-.906.113-.738.023-1.113-.281-.977-.578-1.797l-2.074-5.73 1.336-.848 1.969 5.438.844 2.703c.113.559.141 1.078.07 1.555s-.219.922-.469 1.34-.637.793-1.16 1.125c-.633.398-1.152.59-1.562.57a1.91 1.91 0 0 1-1.094-.398c-.32-.246-.586-.547-.789-.91-.305-.539-.664-1.383-1.082-2.543"/><path id="q" d="M21.07 186.602l-1.637-10.824 1.434-.379 4.078 6.438-1.094-7.227 1.367-.363 1.641 10.824-1.477.391-4.012-6.277 1.07 7.055"/><path id="r" d="M33.688 184.586l-1.855-11.32 1.461.113 1.301 8.371 2.031-8.117 1.43.105-2.926 10.957"/><path id="s" d="M38.367 185.152l1.387-11.109 4.887 1.035-.234 1.879-3.559-.754-.309 2.465 3.313.699-.234 1.875-3.309-.703-.379 3.023 3.684.777-.23 1.875"/><path id="t" d="M45.523 186.543l1.371-10.496 2.238.531v1.832l-.062-.012-1.055-.254-.348 2.664 1 .238.465.102v3.508l-.398-1.293c-.098-.242-.215-.418-.348-.535-.133-.109-.355-.207-.664-.277l-.273-.066-.574 4.383zm3.609-9.965l.609.148c.715.172 1.223.387 1.523.656s.516.664.645 1.191.16 1.102.078 1.723c-.102.789-.336 1.402-.699 1.844s-.848.664-1.453.656a4.5 4.5 0 0 1 .609 1.055c.148.363.332.992.547 1.887l.551 2.242-1.617-.387-.68-2.516-.113-.422v-3.508c.387.074.641.094.766.059.176-.047.32-.164.438-.352s.199-.441.242-.754c.043-.355.023-.656-.07-.902s-.242-.422-.457-.531c-.102-.047-.406-.133-.918-.258"/><path id="u" d="M53.223 184.766l1.305.066c.027.711.145 1.254.355 1.629s.52.605.922.688c.426.09.762.012 1-.234s.371-.562.398-.953c.02-.246-.008-.469-.086-.664s-.223-.379-.441-.555c-.148-.117-.492-.344-1.023-.68-.691-.43-1.16-.879-1.418-1.352-.355-.66-.504-1.41-.441-2.246.043-.535.176-1.02.402-1.445s.523-.727.898-.898.816-.207 1.32-.102c.82.172 1.418.59 1.789 1.258s.531 1.484.48 2.457l-1.332-.18c-.016-.555-.109-.969-.273-1.246-.172-.273-.441-.449-.812-.527-.387-.082-.695-.016-.934.191-.152.133-.238.34-.262.609a1.17 1.17 0 0 0 .148.684c.148.258.535.578 1.164.957s1.082.73 1.371 1.055.5.73.645 1.219c.137.492.18 1.07.129 1.734-.047.602-.191 1.145-.441 1.633s-.574.813-.977.992-.887.207-1.453.09c-.832-.172-1.445-.613-1.84-1.32s-.594-1.664-.594-2.859"/><path id="v" d="M146.547 178.055l.855 6.941.984-.238v1.82l-2.25.539-1.297-10.477 2.715-.652a5.72 5.72 0 0 1 .832-.148v1.859c-.23-.004-.621.063-1.176.195zm9.789-4.152v1.844a1.57 1.57 0 0 0-.352.031c-.613.117-1.082.512-1.398 1.184s-.414 1.613-.297 2.828c.117 1.191.402 2.059.848 2.602.355.426.754.648 1.199.672v1.852c-.859.023-1.598-.309-2.215-1-.742-.828-1.195-2.086-1.359-3.762-.109-1.07-.086-1.992.066-2.766.117-.57.301-1.094.551-1.574s.535-.859.859-1.133c.434-.363.953-.602 1.551-.719a3.34 3.34 0 0 1 .547-.059m-7.949 10.855l.125-.027c.418-.102.711-.207.887-.32.23-.141.414-.336.547-.578s.219-.613.262-1.105.016-1.148-.086-1.957-.227-1.418-.383-1.828-.336-.715-.547-.914-.461-.309-.75-.328h-.055v-1.859c.23-.02.426-.016.594.012.453.074.863.309 1.227.695s.668.898.91 1.527.43 1.438.547 2.418c.109.863.125 1.625.051 2.285-.086.809-.273 1.488-.559 2.043-.211.418-.523.781-.937 1.086-.312.227-.738.406-1.285.539l-.547.133zm7.949.156v-1.852c.117.004.238-.004.367-.031.594-.113 1.055-.508 1.375-1.195.32-.68.418-1.633.301-2.855-.121-1.207-.395-2.07-.824-2.598-.348-.418-.754-.633-1.219-.637v-1.844c.855-.027 1.594.309 2.215 1.008.746.836 1.207 2.113 1.375 3.828.168 1.699-.023 3.09-.578 4.176s-1.375 1.73-2.461 1.938c-.191.035-.375.055-.551.063"/><path id="w" d="M165.777 182.77l-1.27-10.547 2.395-.359.727-.094v1.824l-.695.082-.719.109.359 2.992.816-.121.238-.039v1.828l-.84.125.48 3.977zm1.852-11c.508-.051.863-.055 1.066-.012.441.098.84.387 1.188.875s.578 1.152.676 1.992c.078.645.063 1.203-.051 1.668s-.277.844-.5 1.133-.461.496-.715.617c-.344.152-.855.281-1.531.383l-.133.02v-1.828c.457-.082.766-.184.922-.305.188-.141.32-.332.402-.586s.109-.531.07-.844c-.043-.387-.16-.687-.348-.914s-.41-.352-.656-.379c-.09-.012-.219-.008-.391.004"/><path id="x" d="M173.988 174.199l-.883 3.23.883.082v1.793l-1.363-.121-.645 2.359-1.383-.125 3-10.375.391.035zm.883 3.395l-.711-4.016-.172.621v-3.121l.988.09 2.105 10.84-1.422-.129-.453-2.461-1.219-.113v-1.793"/><path id="y" d="M180.152 176.688l.953.297.422.125v3.102l-.293-.902c-.102-.25-.215-.434-.344-.555s-.344-.227-.637-.32l-.262-.078-.426 4.359-1.285-.402 1.008-10.445 2.238.699v1.82l-.113-.035-1.004-.316zm1.375.422c.379.102.629.137.75.109.16-.039.297-.148.402-.328s.176-.43.207-.742c.035-.355.008-.652-.09-.906s-.242-.441-.445-.562c-.094-.051-.371-.148-.824-.293v-1.82l.477.148c.684.211 1.168.461 1.461.746s.504.695.645 1.234a4.94 4.94 0 0 1 .121 1.73c-.078.785-.281 1.387-.609 1.809s-.785.613-1.359.57c.254.355.453.719.605 1.094s.344 1.016.57 1.926l.582 2.277-1.539-.48-.953-3.41"/><path id="z" d="M189.438 185.359l-2.16-1.312-1.379 1.887-1.418-.859 4.957-6.5v2.539l-1.129 1.539 1.129.684zm1.422-9.086l1.375-1.609 1.422.859-1.992 1.238zm.262 12.832l-1.453-.883.254-2.566-.484-.297v-2.023l.676.414.449-4.176-1.125 1.539v-2.539l1.293-1.695 1.41.855"/><path id="AA" d="M64.844 181.547l-.305 6.98 1.078.207.535.074v1.801c-.133-.012-.27-.035-.418-.062l-2.715-.52.461-10.543 2.633.504.039.008v1.82l-.66-.148zm1.309 7.262c.141.012.254.008.34-.008.238-.039.438-.152.602-.328s.305-.492.422-.945.195-1.086.23-1.902.016-1.449-.066-1.906-.199-.82-.363-1.102a1.64 1.64 0 0 0-.645-.621 2.49 2.49 0 0 0-.52-.18v-1.82c.574.113 1.016.266 1.313.453.41.266.758.656 1.035 1.18s.48 1.133.605 1.836.172 1.551.129 2.535c-.039.871-.145 1.605-.316 2.203-.215.734-.496 1.309-.848 1.719-.266.313-.617.527-1.051.648-.234.063-.523.078-.867.039"/><path id="AB" d="M73.137 189.016l-1.605-.254-.793 2.301-1.59-.254 3.672-10.102.316.051v3.352l-1.016 2.945 1.016.16zm3.461 2.98l-1.629-.258-.473-2.504-1.359-.219v-1.801l1.012.164-.734-4.082-.277.813v-3.352l1.27.203"/><path id="AC" d="M78.477 181.301l2.422.117v1.82l-.551-.039-.609-.031-.391 7.047 1.016.051c.211.008.391.008.535-.008v1.809c-.141.008-.289.008-.449 0l-2.559-.125zm2.422.117l.066.004c.559.027.984.117 1.27.266.383.203.707.547.961 1.027s.438 1.07.547 1.758.137 1.527.082 2.52c-.047.879-.16 1.629-.332 2.258-.211.766-.488 1.379-.824 1.844-.258.352-.59.621-1.004.805-.211.094-.465.148-.766.168v-1.809c.121-.012.219-.031.293-.059.223-.074.414-.215.574-.414s.293-.539.41-1.012.203-1.117.25-1.941.031-1.457-.035-1.898-.176-.797-.332-1.051c-.148-.254-.352-.43-.598-.527-.117-.051-.305-.09-.562-.117"/><path id="AD" d="M85.125 192.188l.246-10.234 5.188.145-.043 1.73-3.773-.105-.055 2.273 3.512.094-.043 1.727-3.512-.098-.066 2.785 3.91.109-.043 1.723"/><path id="AE" d="M94.91 192.852l-.129-10.629 5.117-.074.023 1.797-3.613.055.031 2.516 3.117-.047.023 1.797-3.117.047.055 4.52"/><path id="AF" d="M100.887 192.707l.184-10.656 5.328.051-.023 1.801-3.848-.051.016 2.363 3.398.051-.02 1.797-3.465-.051-.008 2.898 3.797.051-.02 1.734"/><path id="AG" d="M109.164 183.836v7.039l1.125.012.473-.016v1.805h-.27l-2.836-.027v-10.625l2.754.027.352.012v1.828c-.23-.031-.535-.043-.922-.047zm1.598 7.035c.184-.016.332-.043.438-.082.246-.082.449-.227.609-.434s.293-.547.395-1.023.152-1.121.152-1.941-.051-1.453-.152-1.895-.242-.785-.426-1.035a1.38 1.38 0 0 0-.699-.504c-.078-.027-.184-.051-.316-.066v-1.828c.453.023.809.094 1.07.203.438.188.813.52 1.129.992.309.469.547 1.047.711 1.727s.242 1.52.242 2.512c0 .879-.074 1.629-.23 2.262-.184.773-.453 1.395-.797 1.871a2.57 2.57 0 0 1-1.059.836c-.277.125-.637.191-1.066.211"/><path id="AH" d="M114.977 192.215l-.605-10.594 5.117-.445.102 1.793-3.723.324.133 2.348 3.465-.305.102 1.785-3.465.305.164 2.883 3.855-.34.102 1.785"/><path id="AI" d="M122.875 185.355l.984-.109.344-.047v2.23c-.117-.18-.246-.305-.379-.363-.141-.062-.367-.078-.672-.047l-.266.031.023 4.441-1.328.148-.062-10.637 2.684-.301v1.805l-.309.031-1.039.117zm1.328-.156c.438-.062.723-.133.852-.219.156-.105.277-.27.367-.492s.133-.492.129-.812c0-.359-.062-.641-.184-.848s-.285-.328-.504-.359c-.082-.012-.301 0-.66.039v-1.805l.113-.012c.703-.078 1.215-.039 1.535.117s.578.465.773.934.293 1.012.297 1.641c.008.801-.137 1.473-.426 2.027a2.24 2.24 0 0 1-1.297 1.129 3.29 3.29 0 0 1 .719.813c.191.305.445.848.77 1.641l.816 1.984-1.59.18-.977-2.207-.711-1.484-.023-.035"/><path id="AJ" d="M131.539 181.969l-.016-.066-.949 4.137.965-.121v1.824l-1.398.176-.578 2.531-1.516.191 2.73-11.172.762-.098zm.965 3.828l-.965-3.828v-2.598l.75-.094 2.852 10.477-1.551.195-.625-2.383-1.426.176v-1.824"/></defs><path d="M46.027 81.344h111.797v111.805c0 26.688-111.797 30.762-111.797 0" class="B I"/><g clip-path="url(#A)" class="B H"><use xlink:href="#I"/></g><g clip-path="url(#B)" class="C D E K"><use xlink:href="#J"/></g><use xlink:href="#K" class="B H"/><use xlink:href="#L" class="C D E K"/><use xlink:href="#M" class="B F"/><use xlink:href="#N" class="C D E G"/><use xlink:href="#O" class="B F"/><use xlink:href="#P" class="C D E G"/><use xlink:href="#Q" class="B F"/><use xlink:href="#R" class="C D E G"/><use xlink:href="#O" x="14.344" class="B F"/><use xlink:href="#P" x="14.344" class="C D E G"/><g class="B"><g class="J"><use xlink:href="#S"/><use xlink:href="#T"/><use xlink:href="#U"/><use xlink:href="#V"/></g><use xlink:href="#W" class="H"/><use xlink:href="#X" class="M"/><path d="M155.949 165.848v25.648l10.867-2.395V163.16zm-118.699 0v25.648l10.449 1.141v-25.84zm0 0" class="I"/></g><g clip-path="url(#C)" class="B H"><use xlink:href="#Y"/></g><g class="B F"><use xlink:href="#Z"/><use xlink:href="#a"/><use xlink:href="#b"/><use xlink:href="#c"/></g><use xlink:href="#d" class="C D E G"/><g class="B F"><path d="M85.586 58.172h33.91v-1.461h-33.91zm1.043 8.375h31.816V65.5H86.629zm1.258-2.723h29.094v-2.719H87.887zm0 0"/><use xlink:href="#e"/></g><use xlink:href="#f" class="C D E G"/><use xlink:href="#g" class="B F"/><use xlink:href="#h" class="C D E G"/><use xlink:href="#i" class="B J"/><use xlink:href="#j" class="C D E L"/><g class="B I"><path d="M18.086 98.668l30.105-.68v15.996l-12-3.156-16.68-4.574-6.379-.238-6.414-4.879"/><use xlink:href="#k"/></g><use xlink:href="#l" class="C D E N"/><g class="B"><use xlink:href="#m" class="H"/><use xlink:href="#n" class="J"/></g><g clip-path="url(#D)" class="C D E L"><use xlink:href="#o"/></g><g class="B I"><use xlink:href="#p"/><use xlink:href="#q"/><path d="M28.387 184.793l-.129-11.176 1.504-.023.133 11.176zm0 0"/><use xlink:href="#r"/><use xlink:href="#s"/><use xlink:href="#t"/><use xlink:href="#u"/><use xlink:href="#v"/><use xlink:href="#w"/><use xlink:href="#x"/><use xlink:href="#y"/><use xlink:href="#z"/><path d="M60.16 189.672l.211-10.578 1.512.176-.211 10.578zm0 0"/><use xlink:href="#AA"/><use xlink:href="#AB"/><use xlink:href="#AC"/><use xlink:href="#AD"/><use xlink:href="#AE"/><use xlink:href="#AF"/><use xlink:href="#AG"/><use xlink:href="#AH"/><use xlink:href="#AI"/><use xlink:href="#AJ"/><path d="M135.852 189.563l-.402-11.039 1.516-.254.332 9.16 3.762-.633.07 1.875"/><path d="M46.027 81.344h111.797v111.805c0 26.688-111.797 30.762-111.797 0"/></g><g clip-path="url(#E)" class="B H"><use xlink:href="#I"/></g><g clip-path="url(#F)" class="C D E K"><use xlink:href="#J"/></g><use xlink:href="#K" class="B H"/><use xlink:href="#L" class="C D E K"/><use xlink:href="#M" class="B F"/><use xlink:href="#N" class="C D E G"/><use xlink:href="#O" class="B F"/><use xlink:href="#P" class="C D E G"/><use xlink:href="#Q" class="B F"/><use xlink:href="#R" class="C D E G"/><use xlink:href="#O" x="14.344" class="B F"/><use xlink:href="#P" x="14.344" class="C D E G"/><g class="B"><g class="J"><use xlink:href="#S"/><use xlink:href="#T"/><use xlink:href="#U"/><use xlink:href="#V"/></g><use xlink:href="#W" class="H"/><use xlink:href="#X" class="M"/><path d="M155.949 165.848v25.648l10.867-2.395V163.16zm-118.699 0v25.648l10.449 1.141v-25.84zm0 0" class="I"/></g><g clip-path="url(#G)" class="B H"><use xlink:href="#Y"/></g><g class="B F"><use xlink:href="#Z"/><use xlink:href="#a"/><use xlink:href="#b"/><use xlink:href="#c"/></g><use xlink:href="#d" class="C D E G"/><g class="B F"><path d="M85.586 58.172h33.91v-1.461h-33.91zm1.043 8.375h31.816V65.5H86.629zm1.258-2.723h29.094v-2.719H87.887zm0 0"/><use xlink:href="#e"/></g><use xlink:href="#f" class="C D E G"/><use xlink:href="#g" class="B F"/><use xlink:href="#h" class="C D E G"/><use xlink:href="#i" class="B J"/><use xlink:href="#j" class="C D E L"/><g class="B I"><path d="M18.086 98.668l30.105-.68v15.996l-12-3.156-16.68-4.574-6.379-.238-6.414-4.879"/><use xlink:href="#k"/></g><use xlink:href="#l" class="C D E N"/><g class="B"><use xlink:href="#m" class="H"/><use xlink:href="#n" class="J"/></g><g clip-path="url(#H)" class="C D E L"><use xlink:href="#o"/></g><g class="B I"><use xlink:href="#p"/><use xlink:href="#q"/><path d="M28.387 184.793l-.129-11.176 1.504-.023.133 11.176zm0 0"/><use xlink:href="#r"/><use xlink:href="#s"/><use xlink:href="#t"/><use xlink:href="#u"/><use xlink:href="#v"/><use xlink:href="#w"/><use xlink:href="#x"/><use xlink:href="#y"/><use xlink:href="#z"/><path d="M60.16 189.672l.211-10.578 1.512.176-.211 10.578zm0 0"/><use xlink:href="#AA"/><use xlink:href="#AB"/><use xlink:href="#AC"/><use xlink:href="#AD"/><use xlink:href="#AE"/><use xlink:href="#AF"/><use xlink:href="#AG"/><use xlink:href="#AH"/><use xlink:href="#AI"/><use xlink:href="#AJ"/><path d="M135.852 189.563l-.402-11.039 1.516-.254.332 9.16 3.762-.633.07 1.875"/></g></svg>